<?xml version="1.0" encoding="UTF-8" standalone="no"?>
<svg
   xmlns:dc="http://purl.org/dc/elements/1.1/"
   xmlns:cc="http://creativecommons.org/ns#"
   xmlns:rdf="http://www.w3.org/1999/02/22-rdf-syntax-ns#"
   xmlns:svg="http://www.w3.org/2000/svg"
   xmlns="http://www.w3.org/2000/svg"
   xmlns:sodipodi="http://sodipodi.sourceforge.net/DTD/sodipodi-0.dtd"
   xmlns:inkscape="http://www.inkscape.org/namespaces/inkscape"
   version="1.1"
   viewBox="0 0 703.43817 727.22754"
   id="svg1123"
   sodipodi:docname="dbmess.svg"
   width="703.43817"
   height="727.22754"
   inkscape:version="0.92.4 (5da689c313, 2019-01-14)">
  <metadata
     id="metadata1127">
    <rdf:RDF>
      <cc:Work
         rdf:about="">
        <dc:format>image/svg+xml</dc:format>
        <dc:type
           rdf:resource="http://purl.org/dc/dcmitype/StillImage" />
        <dc:title></dc:title>
      </cc:Work>
    </rdf:RDF>
  </metadata>
  <sodipodi:namedview
     pagecolor="#ffffff"
     bordercolor="#666666"
     borderopacity="1"
     objecttolerance="10"
     gridtolerance="10"
     guidetolerance="10"
     inkscape:pageopacity="0"
     inkscape:pageshadow="2"
     inkscape:window-width="2506"
     inkscape:window-height="1376"
     id="namedview1125"
     showgrid="false"
     inkscape:zoom="1.6075269"
     inkscape:cx="448.15962"
     inkscape:cy="363.7197"
     inkscape:window-x="3894"
     inkscape:window-y="27"
     inkscape:window-maximized="1"
     inkscape:current-layer="svg1123" />
  <defs
     id="defs993">
    <style
       id="style991">
      @font-face {
        font-family: &quot;Virgil&quot;;
        src: url(&quot;https://excalidraw.com/FG_Virgil.ttf&quot;);
      }
      @font-face {
        font-family: &quot;Cascadia&quot;;
        src: url(&quot;https://excalidraw.com/Cascadia.ttf&quot;);
      }
    </style>
  </defs>
  <g
     transform="translate(1.1596219,5.5078584)"
     id="g997">
    <path
       d="M -0.59288844,-0.11811228 C 265.60997,1.0572918 531.88647,0.52668595 671.39357,0.78089036 M -0.13680682,0.19775992 C 197.80266,1.6167558 396.54998,1.6823563 671.68389,0.20383873 m 0.85302,0.0252953 C 670.7565,250.61551 670.75961,500.58128 672.39603,668.0126 M 672.09226,0.06315193 C 669.55341,231.85056 670.33181,463.03875 671.62287,668.28935 m 0.62406,-0.59623 C 459.55959,665.34581 248.17284,665.15452 0.0578209,668.67258 M 671.76535,667.60089 c -250.546,3.03034 -501.10075,2.96837 -671.72559957,0.79212 m 0.06247812,-0.11857 C -1.069728,402.43316 -0.79949501,136.51306 0.30023213,-0.29483882 M -0.16413064,667.64973 C 2.146875,481.45763 2.1793076,294.74853 -0.14017253,0.13169813"
       style="fill:none;stroke:#000000;stroke-width:1"
       id="path995"
       inkscape:connector-curvature="0" />
  </g>
  <g
     transform="translate(51.159622,41.507858)"
     id="g1001">
    <path
       d="M 1.4861207,0.5326198 C 55.202353,2.3925352 114.2997,2.0667402 185.62539,-1.029543 M 0.02643884,0.22945756 C 45.492491,-2.1316773 90.385558,-1.2486065 184.40564,0.58170358 m -0.74123,0.0642462 C 185.43225,24.451075 183.1914,47.369139 184.87723,95.564769 m -1.726,-96.56351429 C 182.86124,38.156787 183.13335,75.210303 183.62831,95.228595 m 1.87462,-0.107978 C 117.62551,95.721944 55.767742,94.192409 1.0138529,94.693331 M 183.44811,94.893149 C 121.90766,94.34304 60.003262,94.952401 -0.97347357,94.457467 M -1.3963124,93.603656 C 0.9658656,70.42608 0.98362665,48.881098 0.03374076,0.7004424 M 0.72791265,94.07137 C 0.31122674,69.990682 0.71682404,46.566705 0.9784875,0.57029182"
       style="fill:none;stroke:#000000;stroke-width:1"
       id="path999"
       inkscape:connector-curvature="0" />
  </g>
  <g
     transform="translate(330.15962,81.507858)"
     id="g1005">
    <path
       d="M -1.0915313,-0.38168516 C 63.469319,-1.8096261 127.68326,-1.3126436 231.99542,-0.80770058 M 0.83685946,-0.26384154 C 47.086886,-0.87204595 95.827973,0.44653372 232.91734,-0.09844926 M 231.20609,-1.7634578 C 233.15993,31.608808 231.99635,58.034758 233.193,105.24186 M 233.29498,0.86335812 C 232.67014,25.700345 234.25161,49.663657 232.18629,104.42822 m 1.30922,-0.0151 c -61.2942,1.29835 -119.74956,2.33254 -232.8843248,0.14918 M 233.37589,104.92911 C 148.7502,103.11844 63.558847,102.38735 -0.24746383,104.16384 m 0.56675706,1.43952 C 1.1730951,73.141323 2.079678,37.388486 0.61826571,0.30430445 M 0.00285916,105.01462 C -0.54228383,67.480031 0.13245643,30.695184 -0.4392897,-0.95321019"
       style="fill:none;stroke:#000000;stroke-width:1"
       id="path1003"
       inkscape:connector-curvature="0" />
  </g>
  <g
     transform="translate(100.15962,209.50786)"
     id="g1009">
    <path
       d="M -0.1043735,1.7867036 C 39.435478,-1.1370071 76.484316,-2.3394479 184.53286,-0.36413686 M 0.03237329,0.69097129 C 44.047723,1.0598408 89.099672,0.69412173 185.13039,-0.88979792 m 1.89564,0.25527866 C 184.27539,42.789975 183.77669,89.630074 186.81855,123.06323 M 185.06525,0.46062232 c 2.77648,36.78417468 1.73765,75.30260868 0.002,122.09422768 m 0.62588,1.63086 C 128.96243,123.84024 74.252432,123.60125 1.3534083,121.37445 m 184.2285617,1.12454 c -64.19358,-0.37574 -128.675946,-0.88502 -184.91364856,1.0452 m -1.87017614,0.72794 C -0.35558688,80.858349 0.64166803,42.029733 -0.93317346,-1.2163102 M -0.63261836,123.87918 C 1.4440593,88.657735 0.75902809,55.764484 -0.34423663,-0.64654728"
       style="fill:none;stroke:#000000;stroke-width:1"
       id="path1007"
       inkscape:connector-curvature="0" />
  </g>
  <g
     transform="translate(312.15962,424.50786)"
     id="g1013">
    <path
       d="M 1.3476406,-1.0285325 C 85.887266,1.7700892 167.07043,1.0886595 227.94465,-1.6914265 M -0.0121653,-0.72166708 C 59.51312,-0.91960378 120.08616,-0.87041393 227.75013,-0.22613961 m -2.746,1.57773911 c 0.61296,23.0163115 1.21169,50.0373075 0.37577,76.6600065 m 2.18875,-78.57367711 C 226.50694,24.127619 227.14395,49.726223 226.66255,78.922031 m 0.90496,0.335271 C 171.62814,76.767073 117.69005,77.72965 0.66498378,78.423325 M 226.65466,78.173987 C 151.1532,78.738859 76.391816,80.134155 -0.83707713,77.350909 M 1.926784,77.790167 C -1.0950892,49.114823 1.0792897,18.911937 -0.50173955,0.53034334 M 0.48771968,78.716547 C -0.31019493,54.670286 -1.5945546,29.150612 0.83312692,-0.13020661"
       style="fill:none;stroke:#000000;stroke-width:1"
       id="path1011"
       inkscape:connector-curvature="0" />
  </g>
  <g
     transform="translate(59.159622,513.50786)"
     id="g1017">
    <path
       d="M -0.98434172,-0.05273882 C 45.183747,-1.1250422 92.26372,-1.2304168 223.02098,-1.3589523 M -0.63750668,0.10992156 C 74.806847,-1.6129086 149.36888,-1.4772621 223.73892,-0.47834613 m -1.45801,-0.26684256 C 222.13146,62.177548 224.26376,124.64582 225.60473,211.54134 M 223.83379,0.45984918 C 224.04928,62.486068 224.95438,125.10298 223.82887,212.52953 m -0.48636,-1.82151 c -59.19779,3.41873 -118.48423,2.59034 -224.4949456,1.86262 M 224.3546,212.01059 C 173.83108,211.5698 122.33345,211.83303 -0.3884996,211.25922 M 0.17650917,210.6213 C -0.94236197,163.18701 1.3884299,114.33354 -1.3112155,0.97250754 M -0.30512181,212.44325 C 2.1992698,159.4377 2.3726765,104.6049 -0.65410557,0.83956791"
       style="fill:none;stroke:#000000;stroke-width:1"
       id="path1015"
       inkscape:connector-curvature="0" />
  </g>
  <g
     transform="translate(458.15962,253.50786)"
     id="g1021">
    <path
       d="M -1.7867769,-1.5061356 C 44.703725,-0.40809951 86.861375,0.30411127 155.24129,0.23511102 M 0.44287015,-0.21483902 C 54.450605,-0.73777982 110.57139,0.10529825 156.90293,-0.80529474 m 0.7181,1.32032157 C 157.06391,20.618081 157.07544,42.055391 154.717,81.119093 m 0.99121,-81.92119531 C 155.52255,26.815506 155.97603,54.392116 155.58973,80.956458 m -0.38011,-0.508713 C 104.32268,79.499018 54.942003,80.055444 1.78719,82.448201 M 155.39546,81.319804 C 123.28926,83.043142 92.733973,81.903993 0.77967842,80.856885 M 1.0010944,80.826566 C 0.77966517,58.930409 0.45197778,39.353614 1.4778711,-1.6844264 M -0.49178641,81.978333 C -1.4314734,60.447294 -0.7062693,40.306532 0.56816412,-0.14960794"
       style="fill:none;stroke:#000000;stroke-width:1"
       id="path1019"
       inkscape:connector-curvature="0" />
  </g>
  <g
     transform="translate(467.15962,1.5078584)"
     id="g1025">
    <path
       d="M -1.915951,-0.86993721 C 50.941688,2.7291145 104.5413,1.0949678 148.28478,-0.23233822 M -0.97072901,-0.05996047 C 50.321493,1.0949375 101.96807,1.1176612 148.51593,-0.42587148 m 2.44969,-1.00110022 C 147.27047,21.113684 149.55216,40.947034 147.84876,55.513087 M 149.45804,0.26098384 C 148.76411,15.358692 149.61281,29.229243 148.52416,55.647407 m 1.96711,0.439845 C 117.89957,57.77521 87.293991,57.739513 -1.1179936,56.3327 M 149.84676,55.119785 C 113.5111,55.196733 78.517106,54.587712 0.75941978,54.952391 M 1.7283733,53.308477 C 0.10982813,40.813134 -2.2137736,22.460094 -1.0168459,-0.16900566 M -0.84607567,54.081385 c 0.64913428,-21.695876 0.84393227,-42.40309 0.51066351,-54.76173922"
       style="fill:none;stroke:#000000;stroke-width:1"
       id="path1023"
       inkscape:connector-curvature="0" />
  </g>
  <g
     id="g1039"
     transform="translate(-8.8403781,-8.4921416)">
    <g
       transform="translate(300,277)"
       id="g1029">
      <path
         d="M -0.88917574,0.19775215 C 25.403557,6.2906111 130.89912,29.543692 156.8939,35.651051 M -1.1982749,0.71073761 C 24.577246,6.898575 129.11579,30.558943 155.17515,36.652582"
         style="fill:none;stroke:#000000;stroke-width:1"
         id="path1027"
         inkscape:connector-curvature="0" />
    </g>
    <g
       transform="translate(300,277)"
       id="g1033">
      <path
         d="m 125.73225,41.830133 c 5.90853,-3.644706 14.68513,-2.381225 28.92438,-6.487141 m -29.71414,5.692706 c 9.84249,-1.070973 20.50723,-2.80156 29.53753,-4.942201"
         style="fill:none;stroke:#000000;stroke-width:1"
         id="path1031"
         inkscape:connector-curvature="0" />
    </g>
    <g
       transform="translate(300,277)"
       id="g1037">
      <path
         d="m 130.32727,21.829987 c 4.70927,0.88378 12.43763,6.709795 24.32936,13.513005 M 129.5375,21.035552 c 8.19538,5.722225 17.30316,10.76845 24.94252,15.057945"
         style="fill:none;stroke:#000000;stroke-width:1"
         id="path1035"
         inkscape:connector-curvature="0" />
    </g>
  </g>
  <g
     id="g1053"
     transform="translate(-8.8403781,-8.4921416)">
    <g
       transform="translate(400,420)"
       id="g1043">
      <path
         d="M -0.86572083,-0.41013642 C -3.3542615,-36.421148 -11.808884,-180.58562 -14.095269,-216.33955 M 0.40480684,-0.30909016 C -1.7586432,-36.104773 -10.068068,-180.27615 -12.271345,-216.43133"
         style="fill:none;stroke:#000000;stroke-width:1"
         id="path1041"
         inkscape:connector-curvature="0" />
    </g>
    <g
       transform="translate(400,420)"
       id="g1047">
      <path
         d="m -1.0493004,-189.05365 c -4.2206738,-11.07975 -6.2786131,-19.51036 -13.0332266,-26.93526 m 14.36440853,26.41638 c -3.79293943,-6.85628 -7.06413373,-14.53996 -11.60261553,-25.92106"
         style="fill:none;stroke:#000000;stroke-width:1"
         id="path1045"
         inkscape:connector-curvature="0" />
    </g>
    <g
       transform="translate(400,420)"
       id="g1051">
      <path
         d="m -21.534777,-187.84318 c 3.354839,-11.37943 8.869654,-20.25751 7.45225,-28.14573 m -6.121069,27.62685 c 1.995267,-7.1507 4.523712,-15.17707 8.882862,-27.13153"
         style="fill:none;stroke:#000000;stroke-width:1"
         id="path1049"
         inkscape:connector-curvature="0" />
    </g>
  </g>
  <g
     id="g1067"
     transform="translate(-8.8403781,-8.4921416)">
    <g
       transform="translate(319,141)"
       id="g1057">
      <path
         d="M -0.25891739,0.99871244 C -16.228945,-5.8536711 -79.979851,-33.5344 -95.951709,-40.336796 M -1.7154256,-1.4667342 C -18.241067,-8.6018069 -82.010864,-34.310637 -97.688781,-40.983315"
         style="fill:none;stroke:#000000;stroke-width:1"
         id="path1055"
         inkscape:connector-curvature="0" />
    </g>
    <g
       transform="translate(319,141)"
       id="g1061">
      <path
         d="m -66.051589,-39.622605 c -9.230724,-0.665301 -17.025423,0.715945 -29.640339,-3.235492 m 28.094434,2.880252 c -7.389303,0.573448 -12.740218,0.508785 -30.632924,-0.340716"
         style="fill:none;stroke:#000000;stroke-width:1"
         id="path1059"
         inkscape:connector-curvature="0" />
    </g>
    <g
       transform="translate(319,141)"
       id="g1065">
      <path
         d="m -73.886775,-20.656059 c -7.088944,-6.130452 -12.618974,-10.231263 -21.805153,-22.202038 m 20.259249,21.846798 c -5.491704,-3.597073 -9.120049,-7.831542 -22.797739,-19.307262"
         style="fill:none;stroke:#000000;stroke-width:1"
         id="path1063"
         inkscape:connector-curvature="0" />
    </g>
  </g>
  <g
     id="g1081"
     transform="translate(-8.8403781,-8.4921416)">
    <g
       transform="translate(146,146)"
       id="g1071">
      <path
         d="M 0.14571208,-0.73240921 C 2.8684253,10.125065 14.308674,54.615437 17.274892,65.707421 M 1.8138277,0.75762061 C 4.996648,11.682646 15.114565,53.676459 17.384543,64.77787"
         style="fill:none;stroke:#000000;stroke-width:1"
         id="path1069"
         inkscape:connector-curvature="0" />
    </g>
    <g
       transform="translate(146,146)"
       id="g1075">
      <path
         d="M -0.05553737,39.998529 C 6.9302945,50.637652 13.251549,56.739764 16.540517,66.760195 M 0.30924249,40.286871 C 6.8132468,48.712707 12.412929,56.422744 17.851581,65.163593"
         style="fill:none;stroke:#000000;stroke-width:1"
         id="path1073"
         inkscape:connector-curvature="0" />
    </g>
    <g
       transform="translate(146,146)"
       id="g1079">
      <path
         d="M 19.96143,35.477352 C 19.397686,47.85077 18.148169,55.662871 16.540517,66.760195 m 3.785692,-30.994501 c -0.320288,9.835687 -1.554399,19.089254 -2.474628,29.397899"
         style="fill:none;stroke:#000000;stroke-width:1"
         id="path1077"
         inkscape:connector-curvature="0" />
    </g>
  </g>
  <g
     id="g1095"
     transform="translate(-8.8403781,-8.4921416)">
    <g
       transform="translate(200,522)"
       id="g1085">
      <path
         d="M -0.18972167,0.34519542 C 55.246085,-74.848214 278.20475,-376.2135 333.72794,-451.65542 M -0.33533358,1.2927408 C 55.441206,-74.303366 277.24878,-377.96113 332.89274,-453.36776"
         style="fill:none;stroke:#000000;stroke-width:1"
         id="path1083"
         inkscape:connector-curvature="0" />
    </g>
    <g
       transform="translate(200,522)"
       id="g1089">
      <path
         d="m 325.0637,-425.02246 c 3.41865,-12.5952 5.63475,-24.08579 8.05733,-28.71179 m -8.89032,29.63132 c 2.86528,-10.47197 6.16818,-21.71527 7.7126,-29.47091"
         style="fill:none;stroke:#000000;stroke-width:1"
         id="path1087"
         inkscape:connector-curvature="0" />
    </g>
    <g
       transform="translate(200,522)"
       id="g1093">
      <path
         d="m 308.51848,-437.16231 c 9.86686,-7.80101 18.58124,-14.52356 24.60255,-16.57194 m -25.43553,17.49147 c 8.92417,-5.84878 18.35941,-12.59255 24.25781,-17.33106"
         style="fill:none;stroke:#000000;stroke-width:1"
         id="path1091"
         inkscape:connector-curvature="0" />
    </g>
  </g>
  <g
     transform="translate(51.159622,370.50786)"
     id="g1113">
    <path
       d="M 1.0630917,0.50084266 C 33.091811,-0.96432376 64.060934,1.2661003 82.028247,0.50961968 M -0.06770839,-0.35168566 C 24.065577,-0.27825296 48.163079,0.6117335 83.131491,-0.79848654 M 82.167063,1.2909546 C 82.288281,23.600979 80.961064,44.662434 82.315175,69.802383 M 83.761462,0.53297584 C 82.367624,27.573123 83.909807,56.071204 83.265515,71.666545 m -0.222566,0.544523 C 50.992355,72.909154 21.28768,73.190947 -0.39783254,71.225513 M 83.896173,70.143073 C 50.106976,70.247082 18.030409,70.569819 0.17596499,71.006243 M 1.4491743,72.090649 C -1.0245294,52.734375 0.34603112,38.485733 -0.03594592,0.85457238 M 0.89373509,70.486722 C -0.23685938,53.474301 1.1493678,34.07179 0.35570036,0.01192723"
       style="fill:none;stroke:#000000;stroke-width:1"
       id="path1111"
       inkscape:connector-curvature="0" />
  </g>
  <g
     transform="translate(375.15962,546.50786)"
     id="g1117">
    <path
       d="M -0.91675842,0.85313709 C 83.713781,-0.48437578 167.44652,1.5020333 294.07918,-0.81317074 M 0.1360407,0.72923969 C 106.82498,0.36160539 213.15686,0.66986457 293.03036,0.73838832 m -1.68654,-2.30908112 c 2.84337,8.4190239 3.05974,17.1988818 1.00148,41.6503088 M 292.17277,0.90106486 c 0.51143,6.63430484 0.91517,15.68351414 0.79628,37.87207014 m 0.66881,-0.603483 C 234.04213,39.789665 176.22571,39.115553 1.3205663,39.181132 M 292.26567,38.834984 C 193.69741,39.764277 95.072588,39.270421 -0.1646488,38.487888 m -0.0351469,0.1716 C -1.2148299,21.964495 1.1170285,7.9136614 0.02704183,1.3360919 m 0.3185203,38.2933611 c 0.27313838,-10.06437 0.485928,-17.258818 0.37771824,-40.16283623"
       style="fill:none;stroke:#000000;stroke-width:1"
       id="path1115"
       inkscape:connector-curvature="0" />
  </g>
  <g
     transform="translate(574.15962,356.50786)"
     id="g1121">
    <path
       d="M -1.7129863,0.43616601 C 30.87573,0.25932707 63.413061,-0.0032622 126.55386,1.4112766 M 0.1325031,0.05735231 C 37.143842,-0.70042614 73.840434,-0.3110248 127.25159,-0.40148833 m 1.06319,-0.99974887 c 1.28261,24.4982362 -0.44009,46.0868302 -2.26788,82.3475722 m 2.62181,-81.79095835 C 127.36938,22.418475 129.03931,43.37698 127.51306,79.849523 m 1.74375,-1.525776 c -30.723,1.336404 -60.007271,0.07247 -127.339773,1.967165 M 128.39354,79.801294 C 78.646912,80.340803 31.806298,78.93147 -0.93378313,78.354452 m 1.35590746,1.009169 C 0.32159637,47.940358 -0.18472477,21.650542 -0.0052253,-0.23022464 M -0.26692756,78.139848 C 0.31940404,58.937151 1.4115114,40.98937 -0.15799432,-0.54371559"
       style="fill:none;stroke:#000000;stroke-width:1"
       id="path1119"
       inkscape:connector-curvature="0" />
  </g>
</svg>
