<?xml version="1.0" encoding="UTF-8" standalone="no"?>
<svg
   xmlns:dc="http://purl.org/dc/elements/1.1/"
   xmlns:cc="http://creativecommons.org/ns#"
   xmlns:rdf="http://www.w3.org/1999/02/22-rdf-syntax-ns#"
   xmlns:svg="http://www.w3.org/2000/svg"
   xmlns="http://www.w3.org/2000/svg"
   xmlns:sodipodi="http://sodipodi.sourceforge.net/DTD/sodipodi-0.dtd"
   xmlns:inkscape="http://www.inkscape.org/namespaces/inkscape"
   version="1.1"
   viewBox="0 0 1184.1959 605.20496"
   id="svg2151"
   sodipodi:docname="nice.svg"
   width="1184.1959"
   height="605.20496"
   inkscape:version="0.92.4 (5da689c313, 2019-01-14)">
  <metadata
     id="metadata2155">
    <rdf:RDF>
      <cc:Work
         rdf:about="">
        <dc:format>image/svg+xml</dc:format>
        <dc:type
           rdf:resource="http://purl.org/dc/dcmitype/StillImage" />
      </cc:Work>
    </rdf:RDF>
  </metadata>
  <sodipodi:namedview
     pagecolor="#ffffff"
     bordercolor="#666666"
     borderopacity="1"
     objecttolerance="10"
     gridtolerance="10"
     guidetolerance="10"
     inkscape:pageopacity="0"
     inkscape:pageshadow="2"
     inkscape:window-width="2506"
     inkscape:window-height="1376"
     id="namedview2153"
     showgrid="false"
     inkscape:zoom="0.7927658"
     inkscape:cx="582.00308"
     inkscape:cy="212.50966"
     inkscape:window-x="3894"
     inkscape:window-y="27"
     inkscape:window-maximized="1"
     inkscape:current-layer="svg2151" />
  <defs
     id="defs1733">
    <style
       id="style1731">
      @font-face {
        font-family: &quot;Virgil&quot;;
        src: url(&quot;https://excalidraw.com/FG_Virgil.ttf&quot;);
      }
      @font-face {
        font-family: &quot;Cascadia&quot;;
        src: url(&quot;https://excalidraw.com/Cascadia.ttf&quot;);
      }
    </style>
  </defs>
  <g
     transform="translate(1.0030832,93.695312)"
     id="g1865">
    <path
       d="M 0.65477781,0.37988121 C 195.64811,-0.25188671 392.26302,-0.51566459 575.23708,-0.61218484 M 0.01014298,0.01184845 C 145.5397,-2.3847175 290.96455,-2.302327 575.0335,0.06055825 M 574.67232,0.02684142 C 573.41582,153.50737 574.14413,307.07879 574.76815,510.29256 M 574.71685,-0.16124065 C 575.26351,195.21468 575.42966,390.1291 575.10242,509.73549 m 0.6759,-0.52513 c -166.3329,2.81739 -332.42185,1.84362 -576.28805143,0.34358 M 574.97339,509.71327 c -116.61891,-0.78443 -233.9295,-0.6248 -574.64764088,0.52262 m 0.40861696,0.34938 C 0.36922782,355.95694 -0.73928968,201.73932 -0.09592275,0.11270764 M 0.32048808,509.88024 C -1.0336163,324.21758 -0.37637405,138.8218 -0.08783895,-0.07388391"
       style="fill:none;stroke:#000000;stroke-width:1"
       id="path1863"
       inkscape:connector-curvature="0" />
  </g>
  <g
     transform="translate(608.00308,85.695312)"
     id="g1869">
    <path
       d="M 0.25424526,0.67310659 C 137.52299,-0.60845006 273.82716,-0.42732271 575.23655,-0.70284727 M 0.05299169,0.36163973 C 119.1754,-1.0066292 238.4359,-1.059731 574.82961,-0.32706028 m 0.86324,0.24591253 C 574.45555,112.02464 575.37474,222.53436 575.59789,510.11284 M 574.87324,-0.28450428 C 573.68539,180.48956 573.11907,360.86289 574.76461,509.97742 m 0.56298,0.1017 c -130.4586,1.55901 -260.93137,2.03253 -576.04390843,0.11373 M 574.71413,510.13636 c -189.08441,-0.69512 -377.94654,-0.79725 -575.00334517,-0.042 m -0.50683501,-0.6328 C -0.19971531,338.43159 -0.38912819,166.04894 -0.62932789,-0.6864477 M -0.2799035,509.97823 C -0.71783991,326.27551 -0.24108848,142.14099 -0.1530672,0.09326624"
       style="fill:none;stroke:#000000;stroke-width:1"
       id="path1867"
       inkscape:connector-curvature="0" />
  </g>
  <g
     id="g1899"
     transform="translate(-28.996917,-28.304687)">
    <g
       transform="translate(35,84)"
       id="g1897">
      <path
         d="M -0.80410461,0.26645288 C -0.22997239,-4.1638246 3.7026895,-21.708735 4.3469084,-26.185369 M 1.2735889,0.38772608 C 1.7590422,-4.0593741 1.9539193,-21.20255 2.6856494,-25.916925"
         style="fill:none;stroke:#000000;stroke-width:1"
         id="path1895"
         inkscape:connector-curvature="0" />
    </g>
  </g>
  <g
     id="g1905"
     transform="translate(-28.996917,-28.304687)">
    <g
       transform="translate(642,91)"
       id="g1903">
      <path
         d="M 0.98721371,-0.60693505 C 1.5423592,-5.1466048 2.8700152,-22.53055 3.4380772,-26.774714 M 1.2156393,-0.65661512 C 1.6118694,-5.3965764 3.9541152,-22.989065 4.131464,-27.540191"
         style="fill:none;stroke:#000000;stroke-width:1"
         id="path1901"
         inkscape:connector-curvature="0" />
    </g>
  </g>
  <g
     id="g1911"
     transform="translate(-28.996917,-28.304687)">
    <g
       transform="translate(38,56)"
       id="g1909">
      <path
         d="M 0.27699835,0.58751586 C 93.124616,2.0910396 464.91568,8.026327 558.1781,9.3927006 M -1.8059413,-0.71009575 C 91.199754,0.69975374 464.61659,6.0496437 557.86803,7.6717247"
         style="fill:none;stroke:#000000;stroke-width:1"
         id="path1907"
         inkscape:connector-curvature="0" />
    </g>
  </g>
  <g
     id="g1917"
     transform="translate(-28.996917,-28.304687)">
    <g
       transform="translate(645,63)"
       id="g1915">
      <path
         d="M -0.31372287,0.28324622 C 92.779445,1.94121 465.73978,8.0310483 558.77821,9.327578 M 0.22957727,-0.55542265 C 93.413627,1.270681 464.83751,9.1378529 557.6934,10.650306"
         style="fill:none;stroke:#000000;stroke-width:1"
         id="path1913"
         inkscape:connector-curvature="0" />
    </g>
  </g>
  <g
     id="g1923"
     transform="translate(-28.996917,-28.304687)">
    <g
       transform="translate(597,65)"
       id="g1921">
      <path
         d="M 0.69208114,-0.55114808 C 0.96037743,4.512373 2.2380449,24.93238 2.5309185,29.968272 M -0.06965498,1.2245555 C 0.63661341,5.8092476 3.8229565,24.922148 4.5205384,29.267826"
         style="fill:none;stroke:#000000;stroke-width:1"
         id="path1919"
         inkscape:connector-curvature="0" />
    </g>
  </g>
  <g
     id="g1929"
     transform="translate(-28.996917,-28.304687)">
    <g
       transform="translate(1204,72)"
       id="g1927">
      <path
         d="M 1.1973543,0.6886755 C 1.9189884,5.222891 3.4737795,23.077068 3.6548306,27.927441 M 0.50666364,1.0404879 C 0.57965652,5.7131771 1.8416964,24.535579 2.2091796,29.107661"
         style="fill:none;stroke:#000000;stroke-width:1"
         id="path1925"
         inkscape:connector-curvature="0" />
    </g>
  </g>
  <g
     transform="translate(55.003083,134.69531)"
     id="g1933">
    <path
       d="M -1.3034347,1.904866 C 50.132993,0.49499055 95.427998,1.5396109 121.6049,0.1479801 M -0.05368227,0.70334741 C 30.681467,0.74166074 63.037041,1.6197841 122.13193,0.35828629 m -1.23998,0.94614121 c -0.86413,17.8244265 3.05574,37.0960005 2.21869,49.6284935 M 122.04202,0.1731061 c 0.34214,9.2319046 1.11594,19.9263619 0.40729,51.4472039 m -0.77168,-1.656094 C 75.125735,51.583239 26.263227,49.48329 -1.2626736,52.48456 M 122.93403,51.43545 C 77.821193,52.639116 35.384081,52.60521 0.29865885,51.561332 M 1.9524153,52.038163 C 0.71578202,34.345797 0.84845159,18.726799 0.97359293,0.30448175 M 0.8848629,50.217125 C 0.07076914,30.820185 1.0633056,12.070734 0.80381757,-0.92197851"
       style="fill:none;stroke:#000000;stroke-width:1"
       id="path1931"
       inkscape:connector-curvature="0" />
  </g>
  <g
     transform="translate(130.00308,258.69531)"
     id="g1937">
    <path
       d="M -0.04695772,1.3038045 C 48.368653,1.0202918 97.865817,0.78474693 165.04019,1.1980611 M -0.10756173,-0.11212664 C 46.06362,-2.1838424 93.342449,-1.5941543 165.12155,0.52006647 m 0.72007,-1.62170087 C 164.4451,18.237925 164.32124,36.92742 165.49513,57.302836 m 0.61432,-57.81493243 c 1.03092,19.93271443 0.42137,40.58915843 0.39368,57.16933743 m -0.54192,-0.96744 C 119.62259,56.975148 78.434978,54.538222 1.0995917,54.390069 M 165.839,56.439341 C 123.76214,55.132893 83.097058,56.409545 -0.30664848,55.771098 M -1.2447634,54.02473 C -0.54445782,37.10761 0.90836934,13.98464 0.04114724,-1.7815119 M 0.77489568,56.989286 C -0.73364953,38.354026 -0.59330238,18.459646 -0.87666418,0.54330737"
       style="fill:none;stroke:#000000;stroke-width:1"
       id="path1935"
       inkscape:connector-curvature="0" />
  </g>
  <g
     transform="translate(51.003083,381.69531)"
     id="g1941">
    <path
       d="M 1.8988612,-0.0704938 C 54.297413,0.05133214 107.18014,-0.38566491 158.68811,1.5983734 M -0.53900777,-0.44424055 C 40.735809,-0.49720783 80.56105,-0.34694566 160.52384,0.29884334 m -0.77692,-0.7795915 C 161.77537,13.226605 158.52618,23.292864 160.04878,46.636624 m 0.12851,-46.76732844 C 160.50963,15.312794 159.36208,31.760402 159.88083,47.628331 m 0.91258,-0.779599 C 124.79966,44.724496 92.40508,47.1689 -1.0709439,48.46649 M 159.50655,48.874701 C 97.182129,46.305845 32.766648,47.12704 -0.27365725,48.29074 M -1.5184184,48.425882 C 1.8566014,31.2595 -1.8117119,18.247189 -0.40360757,1.459186 m -0.0284001,47.096128 C -0.51056082,31.908637 -0.94982733,16.796222 -0.95128428,0.55651786"
       style="fill:none;stroke:#000000;stroke-width:1"
       id="path1939"
       inkscape:connector-curvature="0" />
  </g>
  <g
     transform="translate(256.00308,458.69531)"
     id="g1945">
    <path
       d="M 1.7302184,-0.62917511 C 47.941773,-0.3977859 94.763392,0.07004815 170.87373,0.61179043 M 0.708394,0.88665394 C 48.714432,-0.67118144 97.196367,0.02978989 170.69934,0.75589485 M 170.06918,0.33161284 C 170.40419,21.212417 170.58173,39.185031 169.40985,72.717733 m 1.9679,-72.16545739 C 171.21941,22.872816 170.69635,48.231024 170.08669,70.69716 m -0.92202,-0.816291 C 124.91834,68.975005 83.928181,71.969684 -1.9148699,70.315648 M 171.70918,71.643832 C 105.96911,70.791441 40.998098,69.931352 -0.44241383,71.242002 M -1.3277236,72.453836 C -1.6012704,53.096912 -0.3504145,33.972789 -1.8178928,0.49507363 M -0.64905384,70.522316 c 0.0983491,-26.317825 0.20101954,-53.644065 1.3927587,-71.14492427"
       style="fill:none;stroke:#000000;stroke-width:1"
       id="path1943"
       inkscape:connector-curvature="0" />
  </g>
  <g
     transform="translate(404.00308,192.69531)"
     id="g1951">
    <path
       d="M 0,0 C 0,0 0,0 0,0 M 0,0 C 0,0 0,0 0,0 M -0.62375257,6.0196822 C 0.8341197,5.0384811 1.5155114,2.9623117 4.3713111,-0.30447195 M -0.53081245,6.7324677 C 1.71318,4.0991254 3.3807102,2.5541109 5.0520932,0.13177469 M -0.27771163,13.161918 C 2.2005992,10.095671 5.0030821,6.1833541 12.178524,-1.1531578 M -0.43688875,12.723265 C 3.5289343,7.3175449 8.3810629,3.5006969 10.368219,-0.78603323 M -0.1419475,20.212477 C 3.8774669,13.086497 7.6041724,10.601241 16.369655,-1.3218131 M -0.58991238,18.49959 C 5.5789208,12.967664 10.975361,6.2442609 15.122514,-0.08565319 M 0.85797665,25.351099 C 4.3292012,18.354523 12.809723,9.9273779 22.210575,0.48461254 M -0.62427435,23.613319 C 5.4497328,17.512465 9.7832459,13.098259 21.664981,0.09873367 M 0.20523875,32.220434 C 8.6676138,20.873096 17.228988,10.690499 25.277801,-1.3484269 M 0.94457724,30.828244 C 10.148002,19.229699 18.908874,8.3039557 26.98983,0.03669046 M 1.4167987,38.612098 C 11.933128,23.297301 20.956797,12.359929 32.910366,0.95620966 M 0.58980955,37.017371 C 10.627971,25.23708 20.361829,13.592056 32.377655,0.49202191 M -0.9649929,40.948567 C 10.08662,29.376609 20.368505,20.015563 36.41096,-1.7371393 M -0.36873054,43.128901 C 10.253938,31.713786 18.366811,20.660458 37.050243,1.1038164 M 1.7219279,48.484805 C 14.390685,30.633392 32.212037,9.7502581 43.356898,0.42288582 M -0.76394355,48.981612 C 15.701639,29.387283 32.131307,11.566743 43.387796,-0.11998083 M -0.08574792,55.962795 C 18.083145,36.026591 38.313429,14.912861 49.414152,-1.7501575 M 0.97968578,55.513135 C 13.621798,40.165027 26.688091,24.116178 46.64921,-0.23364071 M 1.6373248,61.586721 C 13.821626,45.428366 28.002822,28.74186 54.648317,-0.58069101 M 0.5663663,61.348887 C 13.09326,45.158037 25.937617,31.237887 52.189299,0.1399227 M 0.16005917,67.677495 C 16.001756,49.229763 29.979415,30.492457 59.338647,-1.5559385 M 0.39016364,67.050352 C 17.902627,46.699559 34.747713,26.473424 57.179067,-0.62192099 M 6.3377311,68.836714 C 24.852053,44.821669 39.358896,27.633537 64.289018,0.57389714 M 5.7840453,67.87278 C 25.307027,42.86797 47.066189,19.397958 63.822936,0.35205479 M 9.9608855,66.261313 C 33.210757,40.983982 53.920075,18.636442 70.641964,-0.22918924 M 11.275037,67.673601 C 30.593819,44.782377 49.191548,22.443903 69.079022,0.99586027 M 17.155666,68.285075 C 25.881401,52.317717 37.379904,39.409323 76.189644,-1.3911818 M 15.890803,66.047675 C 39.526541,39.886012 62.720886,11.95284 73.876355,-0.20013732 M 22.949372,68.39148 C 43.159243,42.858911 66.322797,13.673628 79.187873,-1.7508668 M 20.631449,67.933894 C 41.135644,43.491687 61.872746,20.672451 78.835159,0.37971286 M 25.581428,67.113526 C 44.49612,46.793229 62.904518,26.226907 86.667091,-1.6600097 M 26.68675,66.108758 C 39.628202,50.34364 52.532323,36.448516 85.484075,-1.0300813 M 32.317413,68.008913 C 46.392603,47.442992 65.179295,31.084533 90.246394,-1.0081782 M 32.156421,66.755302 C 48.84109,46.199324 68.967637,23.955254 89.980437,0.99277154 M 37.760035,67.559858 C 56.774257,45.239748 73.226515,26.265151 94.444503,0.67708115 M 38.267346,65.956665 C 59.12266,42.421357 80.101736,18.454233 96.327494,0.55191997 M 41.663154,67.14828 C 57.478825,49.385178 71.29436,32.944581 100.4938,-1.7945805 M 42.09385,67.265022 C 63.063489,43.823983 82.217853,20.054066 100.09469,1.0012961 M 47.242757,66.955615 C 68.986072,40.422546 89.380744,15.935671 106.65127,0.6235089 M 48.774924,66.195155 C 66.218967,44.131318 86.106074,24.034126 105.63488,0.4386889 M 50.990988,65.938 C 75.889249,42.060046 97.97198,14.173796 112.0126,1.1902193 M 52.234506,67.793378 C 74.008051,43.894709 94.225088,18.910453 111.80463,0.2746712 M 56.987115,67.72609 C 81.726514,39.941784 103.14663,16.257479 116.16699,2.0311511 M 59.398695,67.131112 C 73.30557,48.911417 88.869974,31.350179 116.52533,-0.51911772 M 62.711561,68.60024 C 77.749795,51.80579 89.249798,36.925541 122.29157,0.34026411 M 62.916037,66.873815 C 75.585868,53.753453 89.14402,39.131426 121.78383,-0.61459327 M 69.356876,67.390326 C 89.886772,43.467384 107.60093,20.71662 126.24566,0.58150642 M 69.374742,65.774548 C 88.350629,43.987608 107.53386,23.306419 127.63297,-0.53184679 M 75.641766,65.450919 C 92.813451,48.747675 108.45548,28.656241 134.22573,1.143347 M 74.022964,66.242907 C 94.584544,45.120553 114.72543,21.536519 131.75276,0.6091374 M 80.122062,68.561115 C 100.10457,45.636856 114.72717,25.379453 136.57938,-1.6860475 M 78.986023,66.838595 C 98.201051,45.738716 116.9825,24.046539 138.17065,0.65740856 M 83.004749,66.899705 C 100.13209,50.842244 114.93895,33.790981 142.11635,0.18101085 M 83.986683,67.84035 C 106.12955,43.761218 126.19365,19.577999 143.47876,-1.075377 M 88.458941,64.945001 C 108.96161,46.722236 125.10853,26.545891 147.26648,-0.63838303 M 90.562373,65.739515 C 103.10278,51.206659 117.88348,34.507322 146.89808,0.50868015 M 94.429904,65.450014 C 114.61444,45.060751 135.76951,20.965534 147.11036,6.6756445 M 94.785467,66.808967 C 108.30356,53.402085 121.18795,37.759749 147.21543,6.560844 m -44.2654,60.781432 C 113.48124,53.538182 122.38726,41.100063 148.28277,13.762602 M 101.4805,67.596691 c 14.39655,-17.315772 29.1157,-36.137194 47.11257,-55.100342 m -42.64019,53.202667 c 10.55029,-10.265025 17.77444,-20.994483 40.99288,-47.321563 m -40.0013,48.117252 C 118.60389,51.288208 132.73486,35.203349 146.4481,19.883972 M 110.92805,66.401694 C 122.29163,54.409387 130.65888,43.90384 148.37998,24.516891 m -37.87205,42.470453 c 15.93022,-15.779335 28.7268,-32.635107 37.44205,-40.82129 M 118.01556,66.337628 C 128.31836,55.44321 137.89322,41.588229 146.07893,32.62097 m -29.54324,34.825667 c 10.33129,-13.476608 21.29236,-26.096688 30.4854,-35.992753 m -23.92097,36.147743 c 8.32732,-12.536318 16.38653,-23.891951 23.74325,-27.826894 m -25.41613,28.152955 c 8.75131,-10.849605 18.55974,-21.961554 24.91008,-29.604615 M 125.4661,66.150519 c 9.21858,-6.985651 13.78019,-14.053709 22.97004,-23.787778 m -20.2581,24.054218 c 7.69051,-9.620296 14.58357,-18.723786 18.71118,-23.355119 m -15.27775,22.716489 c 6.12534,-3.553837 11.1586,-7.120628 13.7848,-17.734073 m -13.29656,19.356938 c 3.85626,-5.261406 8.02668,-7.851884 14.60259,-18.161256 m -7.62927,17.043842 c 0.0394,-1.46462 4.47569,-5.941128 7.74992,-11.295617 m -8.81503,12.237039 c 2.47807,-3.841986 5.65199,-6.618509 8.60805,-10.452622 m -3.77945,10.789402 c 1.72325,-0.930018 1.63502,-2.676586 5.13922,-5.860992 m -5.34225,5.59242 c 1.61807,-0.877143 2.4164,-2.34601 4.77201,-5.079681"
       style="fill:none;stroke:#fa5252;stroke-width:0.5"
       id="path1947"
       inkscape:connector-curvature="0" />
    <path
       d="M -0.01441658,0.0972176 C 44.004411,-0.98816027 87.932779,0.39438598 144.39488,-0.93208458 M -0.59607024,-0.9066571 C 39.773624,0.7813165 78.65594,-0.72561948 145.31182,0.96911087 m 1.35272,0.97156003 c -2.82859,18.3089281 -0.54238,35.6888771 -0.75252,66.2439881 m 0.44347,-68.22392067 C 147.02296,21.726179 146.48527,45.557321 145.20084,66.82744 m 0.58068,2.022471 C 98.231487,68.767313 47.210256,66.396812 0.33405286,68.065371 M 145.1786,67.261076 C 113.42263,66.500679 80.528833,67.376706 -0.79399375,66.127531 M 0.76970034,65.205247 C 0.93772877,54.795508 0.22289664,39.554323 1.3226527,1.7680943 M 0.88860746,66.970705 C -0.23357885,48.751684 0.55436061,28.343543 0.4627835,-0.97750998"
       style="fill:none;stroke:#000000;stroke-width:1"
       id="path1949"
       inkscape:connector-curvature="0" />
  </g>
  <g
     transform="translate(403.00308,318.69531)"
     id="g1957">
    <path
       d="M 0,0 C 0,0 0,0 0,0 M 0,0 C 0,0 0,0 0,0 M 0.33898211,6.1856303 C 2.4527807,3.355419 3.0256954,2.2106106 4.6868304,-0.27147352 M -0.11701451,6.7725569 C 1.2104709,5.0304251 2.3243934,3.8797496 5.1818794,0.23859736 M -0.80660189,12.700271 C 3.995274,8.4594155 7.9730163,2.3766646 10.746188,0.96141563 M -0.54834079,12.021839 C 3.6344341,9.1905519 7.1351741,5.0101292 11.015175,-0.3899455 M 1.3555755,19.146761 C 6.9875911,11.091115 10.441433,6.4182348 14.341593,2.0790009 M 0.43050836,19.229553 C 6.0819126,12.20224 12.505175,3.2423702 15.107504,-0.63530626 M -0.80639822,24.311962 C 3.770229,16.92154 9.5500888,11.473757 23.012765,-1.0465744 M -0.06162192,23.408657 C 6.0688063,18.396704 11.598624,12.060223 21.493064,-0.50690116 M 1.8472506,29.774137 C 5.8810543,24.036229 11.335453,16.202172 26.790391,0.90137518 M -0.62456133,30.940433 C 9.9008831,18.633613 20.650977,7.0895919 25.322067,-0.58157972 M 0.70823775,35.664991 C 10.475783,24.795438 19.132605,13.948362 31.661701,-1.3583592 M 0.17787001,36.283703 C 11.802521,23.328677 26.262781,8.2860488 31.013899,0.62699697 M 0.02960712,43.286149 C 9.5266243,36.0226 15.497458,26.023245 37.163513,0.76927404 M 0.77306291,42.640453 C 6.9947974,33.024283 15.96139,25.903426 37.198674,0.02342017 M 1.7700537,47.560788 C 7.3976245,38.328705 18.722947,26.938463 42.443213,-0.0945901 M 0.70519205,49.626211 C 8.0313748,37.218134 18.867662,26.385643 43.05945,0.29910691 M -1.0011635,55.938168 C 15.915803,33.822077 32.150905,14.846594 47.822775,0.9224436 M 0.32137914,54.393333 C 16.665627,35.966566 32.276869,16.712544 47.177511,-0.62377339 M 1.4598069,60.61881 C 11.383118,46.942233 25.747061,30.433938 52.859742,-0.90614604 M -0.38302927,61.074925 C 18.535146,39.776483 37.396433,18.027641 53.874589,0.77627439 M 0.97632114,65.459025 C 13.519979,55.027851 24.300825,37.923431 57.911245,0.31937995 M -0.07829863,67.908129 C 16.233019,49.2322 32.312595,30.528306 58.058139,1.0639978 M 0.29556382,74.422551 C 23.680365,41.818816 48.866511,12.579464 62.19498,-0.72515589 M 0.02526659,72.904501 C 15.808699,56.287736 29.087094,39.125238 63.563565,0.21597009 M 1.9010476,75.768043 C 18.855495,58.737563 38.414398,37.311814 69.353237,-0.36267083 M 1.2710728,76.256263 C 26.849533,48.311856 50.658862,20.393644 67.999493,1.0645169 M 8.7932902,77.972452 C 22.671587,60.493391 35.424014,43.355092 73.513868,0.23500143 M 7.6181645,77.478419 C 26.137992,54.64693 44.456312,33.950374 75.09,-0.33371027 M 12.117488,76.484456 C 25.978979,59.081457 43.246876,44.309482 80.854319,-0.72771263 M 11.550148,76.380944 C 37.853767,47.901196 62.49163,19.284467 79.519884,0.74619224 M 19.097198,76.817768 C 41.070255,49.902233 63.600594,26.582023 83.662598,0.47969702 M 17.290121,77.380843 C 38.372374,51.812795 58.710413,27.978923 85.276892,0.065954 M 21.318068,76.549861 C 46.943398,48.869928 71.00234,25.058326 89.901307,1.3390006 M 23.365657,77.719619 C 46.159754,49.763088 69.044429,23.456342 90.496997,-0.13194309 M 26.788809,77.471792 C 41.75522,60.656224 57.308642,46.134434 97.268611,-0.76694802 M 27.951026,76.831855 C 50.683211,51.732652 72.43127,26.486012 95.806616,-0.75569139 M 35.505227,75.813378 C 52.69499,54.050687 73.599973,32.95946 98.762268,-0.32903495 M 34.712473,76.789133 C 54.212303,53.518782 76.484607,28.085857 101.16789,-0.42023087 M 39.51119,78.393021 C 61.369033,50.681299 80.582881,28.112849 104.7406,-1.5620626 M 40.15044,75.668613 C 62.883019,50.768839 84.201501,26.522563 106.22092,-1.0786757 M 42.462658,76.842879 C 65.3672,53.452212 87.701842,26.340056 112.48652,1.8204267 M 43.444845,75.996956 C 56.805824,59.782042 70.405392,45.382127 111.12901,-0.57838787 M 51.688656,75.758699 C 75.694769,45.999276 100.86755,18.674484 115.61244,1.5106839 M 49.7973,76.1189 C 68.63807,54.810627 88.69148,33.073902 116.26486,0.46230623 M 53.755301,78.924985 C 73.599087,56.762822 88.421487,39.11083 120.90462,-0.94161825 M 54.276395,76.641184 C 76.931957,51.368303 99.13254,27.30576 122.33615,0.3244941 M 62.526774,77.464824 C 75.768995,62.161138 86.501459,46.866058 127.16745,0.32224353 M 61.159915,75.801125 C 85.693833,47.741261 111.65081,17.638216 127.51107,0.85905607 M 66.729348,76.065066 C 85.37292,52.594233 106.38773,31.547267 132.6284,0.37457621 M 65.780121,77.910539 C 84.241523,54.25866 102.57645,33.211261 132.10451,-0.39005176 M 70.012361,77.126142 C 90.82452,52.732563 114.39299,25.650702 138.50201,1.7264469 M 71.865971,76.72432 C 94.728411,49.29387 117.05819,22.959135 138.42334,0.25812907 M 74.512241,74.987244 C 96.716193,56.418003 116.22048,31.508397 145.05091,-1.5224938 M 75.388397,77.884364 C 93.505789,57.239806 111.68687,35.412478 144.10864,-0.00986724 M 80.913483,76.076149 C 96.011449,59.978438 112.60938,42.54014 146.49375,-0.70412537 M 81.902528,76.288144 C 107.50107,49.404998 131.54315,20.0429 147.32488,0.69670549 M 88.012671,77.134391 C 109.37213,49.527663 131.87052,23.057991 147.78589,7.3415136 M 86.39297,76.532632 C 107.55307,51.430016 128.25105,27.235907 146.82189,8.1149267 M 92.779456,77.36709 C 111.31344,54.516554 131.15981,34.951488 147.27279,13.133082 M 92.616023,76.28288 C 111.68174,53.281944 131.94966,31.899557 146.86948,12.913815 M 97.920579,76.668126 C 117.01798,57.238506 135.0497,34.540501 148.41314,18.093756 M 96.944963,76.715939 C 106.54831,64.559233 117.9741,53.334353 148.26181,19.4589 m -44.97702,57.065771 c 9.72687,-9.244477 17.38439,-20.604607 41.83535,-51.597165 m -42.06393,51.71664 c 10.95091,-12.382533 21.15345,-24.728974 44.88375,-50.236901 m -39.2328,52.061576 c 7.84421,-12.32859 16.77402,-20.660899 37.89866,-48.398098 m -37.55094,47.11478 c 7.80877,-10.350222 15.3214,-18.136285 38.06256,-44.807675 M 114.85341,76.52922 c 7.96122,-14.534718 19.45954,-25.916308 33.37195,-38.385371 M 113.60038,77.434056 C 124.16814,64.058153 135.87883,51.65436 146.40581,38.621921 m -25.78096,37.513677 c 7.13768,-8.589822 13.30626,-16.226416 26.25716,-33.279689 M 119.59258,77.583173 C 126.56459,67.38615 135.24513,58.26736 148.50083,43.146369 m -23.77849,35.197573 c 9.02421,-8.207571 15.57743,-19.604327 23.86875,-29.114252 m -25.57404,27.139787 c 9.51212,-8.40839 17.24593,-17.366191 25.01068,-27.211954 m -20.32039,28.828804 c 4.95588,-5.372434 8.63931,-9.591877 20.17762,-23.480056 m -18.59764,22.935146 c 4.78562,-6.832574 9.95084,-11.812484 16.94005,-20.2569 m -12.66149,18.711566 c 4.26735,-3.490074 11.64765,-9.701657 13.09139,-13.299431 m -12.56712,14.206541 c 4.48727,-5.202236 10.02701,-11.320248 13.99168,-15.053545 m -8.19025,15.140335 c 1.56211,-2.369633 4.39046,-5.470223 7.22827,-8.424146 m -7.25128,8.493283 c 3.5534,-3.574018 5.97819,-7.007814 6.93923,-8.215328"
       style="fill:none;stroke:#fa5252;stroke-width:0.5"
       id="path1953"
       inkscape:connector-curvature="0" />
    <path
       d="M 0.29574354,-0.16349416 C 36.518695,-0.27258164 74.277614,-1.5823927 145.29788,0.06094231 M 0.46458996,0.22195635 C 56.600934,-1.6311991 112.51878,-1.5706105 146.09772,-0.89440416 m -1.7885,1.37832439 c 1.2113,24.91503577 2.31181,47.80652477 0.60567,75.35579777 m 0.83538,-76.40186799 C 146.59315,15.76597 146.4303,29.624006 146.69802,74.9761 m -2.18605,-0.499583 C 96.34818,76.789567 49.905535,72.824227 -1.8141618,75.597648 M 146.03927,74.440579 C 94.731533,74.358549 42.666421,75.041061 -0.84916457,74.977099 M 0.36035635,73.761257 C 1.0358659,47.38564 -0.97902913,23.963406 -0.68097178,0.81098957 M -0.20178541,74.616527 C -1.304548,54.607517 0.25463683,36.226873 -0.65628051,0.68345068"
       style="fill:none;stroke:#000000;stroke-width:1"
       id="path1955"
       inkscape:connector-curvature="0" />
  </g>
  <g
     transform="translate(663.00308,131.69531)"
     id="g1961">
    <path
       d="M -1.4645034,-1.0431732 C 41.129357,-1.8371043 81.461639,0.56806002 145.86369,-0.97654502 M -0.38681629,-0.00896477 C 51.426886,0.6584254 103.52194,0.94647197 144.48739,-0.3072091 M 143.7436,0.48093302 C 143.74303,24.270661 142.96502,49.157632 143.5477,65.116117 m 0.53698,-64.53227218 c 1.47817,22.62216118 1.4438,44.49558318 1.18183,65.01325718 m -2.19505,-1.000603 C 89.778548,65.00676 36.31939,65.771166 1.5524586,63.729132 M 145.73048,65.821309 C 86.764693,65.984638 29.93005,64.41359 0.12285162,65.17039 M -0.2413613,66.248531 C 0.34375613,40.315544 2.4140872,15.984073 -1.3180269,1.5243052 M 0.6724906,64.793911 C 0.33443672,46.628176 0.24824056,27.204728 0.69298539,-0.90213429"
       style="fill:none;stroke:#000000;stroke-width:1"
       id="path1959"
       inkscape:connector-curvature="0" />
  </g>
  <g
     transform="translate(687.00308,346.69531)"
     id="g1965">
    <path
       d="M 0.16745886,-0.5932692 C 57.373704,-0.2560115 116.83517,1.4196124 170.73371,-1.0087803 M 0.70237692,0.43616073 C 61.530682,0.47412567 123.36053,1.1033624 172.01286,0.55287473 M 171.38609,-1.8822316 C 171.09317,26.112959 171.01934,51.488185 170.34135,89.48659 m 1.01713,-90.36509268 C 171.46532,31.373342 172.56607,63.989612 171.18954,90.353614 m 1.51733,0.987796 C 131.99152,87.039252 94.6388,89.865694 0.21422419,90.815852 M 172.63758,90.692866 C 136.87457,89.705233 103.38751,89.292753 -0.55325215,89.965677 M 1.5194381,90.797382 C -0.71568991,68.339808 1.9766519,50.436099 -0.66427866,-1.3950156 M 0.82142361,90.938841 C 0.77654548,58.36846 -0.90666918,25.497465 0.51933821,0.9745156"
       style="fill:none;stroke:#000000;stroke-width:1"
       id="path1963"
       inkscape:connector-curvature="0" />
  </g>
  <g
     transform="translate(856.00308,503.69531)"
     id="g1969">
    <path
       d="M 1.1599888,1.8184688 C 33.654243,2.0469705 69.908406,0.53325259 120.5317,1.7125566 M 0.51732785,-0.06736456 C 29.165862,0.00825216 57.602182,-1.218531 119.71249,-0.38672151 m 1.22795,0.36690727 C 119.384,23.16757 120.83063,43.981428 121.98472,64.373673 M 120.36761,-0.92159428 C 119.92445,23.5594 120.37299,49.203704 120.75898,64.639217 m -2.1105,0.07934 C 89.903995,66.231033 56.680041,66.140926 -1.7475288,65.035821 M 120.33481,63.585858 C 84.298706,63.647122 46.503086,62.791693 -0.56563028,64.460644 M 1.6697862,62.248488 C 0.12362016,47.312379 -0.05191379,28.447203 0.38274731,-0.4044538 M 0.08398477,64.028692 C 0.91128381,42.862367 0.0804178,20.975991 -0.28669554,0.91981579"
       style="fill:none;stroke:#000000;stroke-width:1"
       id="path1967"
       inkscape:connector-curvature="0" />
  </g>
  <g
     transform="translate(855.00308,227.69531)"
     id="g1973">
    <path
       d="M 0.21296747,0.15257846 C 47.698001,-1.2730725 91.300295,-2.1364373 125.65114,1.3480065 M -0.54266167,-0.82159122 C 49.360833,-0.22517484 96.29777,1.1177253 127.64689,-0.1924881 m -0.0394,-0.62376343 C 125.82303,25.44538 125.94779,54.709686 128.05365,79.887466 M 127.53743,0.18487558 C 127.30702,19.698395 127.10816,37.551611 126.23985,79.691884 m 0.0231,0.673383 C 88.812453,81.620276 53.994608,78.38227 -0.8083828,77.553958 M 127.21167,78.708423 C 100.07086,77.876572 74.981193,78.053094 -0.71945698,78.092298 m 0.61257889,1.795388 C 1.7438154,50.844426 0.21428738,24.792365 -1.3657502,1.8700672 M -0.16878874,79.398891 C 0.46728261,64.079417 -0.35444878,46.423737 0.22362208,0.46133081"
       style="fill:none;stroke:#000000;stroke-width:1"
       id="path1971"
       inkscape:connector-curvature="0" />
  </g>
  <g
     transform="translate(1012.0031,192.69531)"
     id="g1979">
    <path
       d="M 0,0 C 0,0 0,0 0,0 M 0,0 C 0,0 0,0 0,0 M -0.82064385,5.8807285 C 0.84724455,3.9440891 3.4653367,3.0371098 4.9228561,0.92559339 M -0.06352057,6.5786826 C 1.7871115,4.5342038 3.5441821,1.5777214 4.9603056,0.65010048 m -6.2747,12.39928252 C 3.8119167,10.267085 4.9051161,7.2226533 9.7300808,-1.1716098 M -0.02787868,12.048453 C 3.5647357,8.8110295 6.1863322,4.7662829 10.990951,-0.12806897 M 0.8151954,18.457436 C 3.3730562,12.303803 7.6667242,7.0169502 14.76798,0.2203038 M 0.08766534,17.854118 C 5.4547464,12.739453 10.365372,5.7990642 15.714576,-0.64690593 M -0.48182996,23.546463 C 4.5352941,17.449515 12.085404,11.745313 20.964977,-1.776783 M -0.63330774,23.56267 C 4.5035159,18.057971 11.362219,12.221305 21.928764,-0.83915659 M -0.20131182,31.617626 C 4.1265234,23.160481 13.46706,17.952981 26.546098,0.61164756 M -0.19231139,30.077242 C 9.0981386,20.574506 16.455941,11.726767 25.486104,-0.34748797 M 0.21557984,38.574968 C 10.108727,25.381505 19.906787,16.037914 32.247714,-1.8928055 M -0.55410569,37.084744 C 9.2713557,26.471284 17.219864,16.912387 31.082778,-0.54145715 M 1.4897844,43.504172 C 14.75892,26.58738 27.852929,12.607743 36.781574,0.19443572 M -0.62388038,42.790642 C 8.9255776,34.171557 16.634522,25.910385 37.131552,-0.03447824 M 1.4736736,48.999192 C 13.956128,32.81004 25.627412,14.937747 41.020769,1.1457513 M -0.18418199,48.651833 C 11.758842,37.498191 20.713719,25.440739 42.041498,0.74725105 M -1.3190354,55.941782 C 19.722798,30.947579 38.57715,9.4729911 47.688765,0.1215003 M -0.27125061,53.562433 C 10.569396,41.832995 21.809268,30.128066 47.000773,0.07117599 M -0.02425223,59.601677 C 13.360675,46.857859 25.466821,33.8893 53.545373,-0.80515579 M -0.39224215,60.3602 C 15.091528,42.218158 31.340379,25.515194 52.256341,0.32945824 M 0.1024001,68.416122 C 21.529692,42.734759 44.261503,15.186731 57.075777,-0.54807665 M -0.9015651,68.012316 C 11.570828,53.222898 26.209906,37.924525 57.896748,0.54540245 M 0.65490782,72.316505 C 19.592818,50.683447 37.971323,31.125256 62.676506,-0.98331963 M 1.0621924,72.348271 C 20.346293,48.847234 41.952237,23.794001 64.131848,-0.19547034 M -0.95381049,81.05498 C 14.509117,64.795395 27.059452,46.422417 68.344464,1.1510369 M 0.63933524,79.792737 C 25.442838,49.486057 51.277837,18.718456 68.075578,-0.23899612 M 2.0380092,84.984007 C 15.636502,67.791289 35.934892,46.669756 73.862899,0.27971679 M -0.12727497,84.551351 C 29.422459,50.242245 58.473419,16.91349 74.025684,0.06870553 M 2.0542404,90.137685 C 25.065273,57.829535 49.082442,31.976974 80.490432,2.0904229 M 2.1147935,89.098306 C 25.64028,63.189701 47.770852,37.709359 80.246493,0.88765802 M 10.118366,88.294252 C 22.789423,69.308961 41.028939,50.363851 83.147032,1.5586605 M 8.0587927,88.645101 C 26.554191,67.051 46.276286,45.253088 85.248641,0.31510111 M 13.542505,87.076266 C 31.022368,68.57214 45.980744,50.620226 90.103037,-0.95208645 M 13.521573,88.646963 C 35.101421,62.245755 59.513814,36.627514 90.571846,0.89191759 M 19.361861,87.937747 C 38.627974,61.330673 62.041063,36.502903 95.165135,-1.6655315 M 17.971777,87.19625 C 45.384694,58.521016 72.496269,26.888844 95.064634,-0.96629338 M 25.399507,87.283196 C 46.428275,61.31989 70.706288,34.767475 101.36538,-1.2924093 M 23.688381,87.547713 C 52.183051,56.400513 80.54769,25.35297 99.667115,-0.46278966 M 29.796304,89.247123 C 52.892913,64.537397 72.009074,36.426546 105.14719,0.99434789 M 28.384361,89.304276 C 57.972923,57.508602 85.157543,24.509881 105.69071,-0.98861271 M 35.980225,88.020681 C 54.404102,66.31065 74.740948,42.271929 112.05433,-0.34021344 M 34.269759,88.14992 C 65.675885,54.384911 94.475291,18.881405 111.6009,0.38383899 M 39.63567,88.178292 C 68.031977,58.802562 95.004303,27.133496 116.26087,1.5864652 M 40.114766,88.58256 C 69.009277,54.969037 99.258038,21.322795 116.64096,1.0865929 M 44.23339,87.45718 C 71.467679,57.734921 97.820911,25.787779 123.54048,-1.598917 M 44.873373,88.099826 C 67.936415,62.099187 92.243978,35.256363 122.89494,-0.21101871 M 48.719505,88.857547 C 65.575469,68.495399 85.233804,47.568167 128.23577,0.80110839 M 50.466161,87.705491 C 76.166492,58.411669 102.77751,27.419551 126.35081,0.13051964 M 55.701483,86.667398 C 88.035493,54.115058 115.3556,16.620341 130.78818,-0.66568785 M 56.060014,87.340546 C 81.329622,58.214272 109.61606,26.680338 133.52408,-0.09331004 M 59.137164,90.562718 C 84.20469,61.636974 111.46706,31.034351 138.771,-0.74634641 M 60.850901,88.389622 C 78.006902,69.175733 93.1227,51.427148 136.58455,1.3300768 M 64.520734,87.632293 C 80.920521,67.722695 96.468168,49.361463 137.79496,8.3156518 M 66.343598,89.112069 C 81.792288,70.195424 98.165629,50.715827 137.35571,7.2349885 M 72.571752,90.477888 C 90.423776,68.128483 107.24056,45.403782 135.63066,14.276952 M 71.134464,89.148379 C 94.188344,61.594525 118.10441,35.777293 135.53084,13.980273 M 75.421123,87.239072 C 94.803052,66.597884 113.4439,47.513852 135.33691,20.541596 M 77.191166,88.95126 C 97.153302,63.983257 117.01985,41.294911 136.89517,19.502841 M 80.300126,89.69339 C 94.251537,77.05835 104.05166,64.455556 136.16648,23.959396 M 82.635453,88.292065 C 92.166041,77.208304 103.39272,62.984395 136.32535,26.522287 M 85.726382,87.281191 C 100.18339,73.034686 109.30194,60.955445 135.09598,31.605468 M 88.022883,87.691861 C 103.0432,68.179153 120.48152,49.775272 136.41305,31.726669 M 93.19289,87.205804 c 9.06894,-8.860153 17.62582,-20.049233 43.322,-48.325399 M 93.125597,88.92786 C 108.58974,68.420142 126.90465,48.614017 137.2478,37.278941 M 99.35399,88.458359 c 10.25112,-9.394776 18.65845,-22.066373 38.40148,-42.168548 M 99.212042,88.464487 C 112.69447,70.082513 127.75328,53.832587 137.04063,44.002733 M 103.7144,89.917964 c 10.2885,-14.374941 22.65088,-27.528174 34.34771,-40.14703 m -34.23236,38.18888 c 6.23228,-6.846348 14.04109,-15.061789 33.35737,-38.844586 m -28.37194,39.261303 c 11.29786,-13.402573 21.00664,-22.773344 28.74543,-31.357243 m -28.47555,30.677339 c 7.15747,-8.876319 16.42307,-18.747802 27.24545,-30.736584 m -20.40775,29.678908 c 4.70531,-7.281118 13.11079,-15.594691 20.86536,-24.370761 m -22.36223,26.820666 c 8.0417,-9.23923 14.89367,-20.032998 21.55945,-27.895844 m -14.77041,26.354904 c 1.59431,-3.502607 6.60606,-8.042058 15.16726,-17.158977 m -17.46072,17.723708 c 4.19344,-3.549325 7.49964,-7.159192 18.39877,-18.824036 M 123.57852,89.91572 c 6.02613,-7.536354 10.50551,-8.80562 13.00761,-14.330857 m -12.48985,12.28668 c 5.55498,-3.638751 8.94658,-8.768696 12.64372,-13.136819 m -7.51411,12.963624 c 3.92863,-2.00649 5.50143,-4.489352 7.32472,-6.396359 m -6.47373,6.567768 c 1.5297,-2.080561 3.79863,-3.783729 6.3816,-7.780135"
       style="fill:none;stroke:#fa5252;stroke-width:0.5"
       id="path1975"
       inkscape:connector-curvature="0" />
    <path
       d="M 0.41097552,-1.800605 C 46.161575,2.6593878 95.821177,1.7136454 136.55403,-1.236282 M -0.84913029,-0.36825564 C 36.586444,0.60335196 73.565458,0.73284368 135.95101,0.15196389 m -1.33148,-1.78634629 c -1.68561,24.0180054 -0.0227,44.9872684 0.59411,88.4656544 M 134.48475,0.58231062 C 136.23586,19.023698 135.42799,36.4776 135.21502,85.269891 m 1.31633,0.714046 C 82.597141,86.661309 27.761262,84.24193 0.98271216,86.498444 M 134.02537,85.63738 C 91.799389,87.353928 48.769251,87.226494 0.70776672,86.607525 M -0.83554947,85.191622 C -1.5180894,61.089574 -1.9340613,37.095157 1.3382266,1.5372691 M 0.6099052,86.733688 C 0.59487486,54.198644 0.37928018,20.897734 0.30256818,-0.73140469"
       style="fill:none;stroke:#000000;stroke-width:1"
       id="path1977"
       inkscape:connector-curvature="0" />
  </g>
  <g
     transform="translate(1006.0031,372.69531)"
     id="g1985">
    <path
       d="M 0,0 C 0,0 0,0 0,0 M 0,0 C 0,0 0,0 0,0 M 0.0186828,5.8176978 C 2.0864152,4.818219 4.0902322,1.1829891 5.0199377,0.75270008 M -0.18434416,6.3033814 C 1.5388026,4.1716275 3.9069848,2.2043628 5.0824446,0.42298142 M -0.57916629,12.044227 C 2.1113394,7.5551409 3.8809802,7.0886761 10.79217,-0.27173345 M 0.07531947,12.726234 C 4.6796635,7.8147982 8.1944513,2.5821078 11.405612,-0.01528908 M -0.74499495,18.50897 C 4.7744215,12.099585 11.577555,2.6351138 15.899781,1.3709035 M -0.95442933,18.901976 C 5.1480975,11.417377 11.368283,4.5137151 14.678358,0.06315391 M -0.27413158,25.354632 C 9.0634068,12.77781 14.786285,6.1072786 20.58723,-0.0411163 M -0.0224658,23.513514 C 8.1768878,15.994895 14.924613,5.4731902 22.114819,0.23496254 M 0.69149444,32.268598 C 9.8122938,22.074974 14.714906,13.325235 26.62259,0.99053456 M 0.96327566,31.419649 C 9.9210136,19.089255 18.973412,6.7256689 25.263444,-0.3368999 M -0.808635,38.700627 C 10.668321,23.744234 23.870723,9.3538965 30.01781,-1.5930016 M -1.0963339,37.18629 C 8.6018629,26.584362 16.705932,16.543849 31.616711,-1.0580318 M -1.0748818,44.50282 C 7.2502254,32.082271 16.289933,25.4498 35.445756,-1.0544004 M 0.7132484,43.334424 C 10.032914,31.076507 21.018536,19.514065 36.744031,-0.04761503 M -0.09062858,50.568753 C 13.685435,34.6096 26.876041,16.399084 41.113689,-1.5228319 M 0.53956031,48.416742 C 13.14736,34.022206 24.143227,20.971643 42.727726,-0.36359173 M -1.3048658,55.925504 C 11.342342,41.624017 25.129692,28.351374 49.139788,-1.5812842 M -0.45695249,55.547179 C 12.814053,39.094241 25.559153,24.194437 48.102051,-0.15248757 M -1.2556635,62.146336 C 23.22239,36.512832 42.175022,12.974388 54.426624,-1.9292399 M -0.16390856,60.251084 C 13.866852,44.36334 27.859238,30.170209 52.289172,-0.87458839 M -1.3527588,66.442726 C 19.498242,45.166574 38.513266,22.348523 59.037691,-0.96999963 M 0.26292253,66.994755 C 16.946819,48.273456 34.137781,28.395615 57.538189,0.54623639 M 1.7792679,74.303494 C 20.094152,52.059969 39.553147,28.526984 65.070874,1.5266415 M -0.38105693,73.262069 C 15.516792,54.09236 31.934296,36.062206 63.361109,-0.50264284 M -2.0421849,80.133934 C 18.489165,59.114301 34.528422,39.83759 69.034976,0.83707043 M -0.12994987,79.63111 C 13.929082,63.960236 27.789627,46.535799 68.471877,-0.47243924 M 0.31573267,83.593134 C 26.086759,51.330213 56.098924,20.783548 74.723195,-0.37882048 M 0.58860781,83.548992 C 28.558286,51.351376 58.048209,19.596955 75.222345,0.12187382 M 6.9581449,82.233109 C 32.939343,53.280233 58.83071,20.139904 79.589648,0.3350432 M 6.1727702,83.408488 C 34.4377,51.532783 63.826349,16.840657 79.541301,0.55173943 M 10.746565,85.194439 C 32.603327,59.675627 53.845573,33.231083 83.622846,1.5682413 M 11.193096,83.681173 C 37.669855,54.406286 64.758257,21.749681 85.370439,-0.35015952 M 18.013252,82.222956 C 40.87044,58.362923 65.546186,30.844091 91.722217,-1.5434641 M 16.669405,83.371605 C 44.862036,53.783762 71.980384,21.00728 90.603392,-0.33972369 M 23.001387,84.610671 C 40.835727,65.702079 53.956916,45.954261 94.571584,-0.98080584 M 22.073455,84.395758 C 48.802986,52.416497 77.165438,21.664385 95.521699,0.01338607 M 28.738541,85.533101 C 50.015348,58.280645 73.813768,31.847877 99.015689,0.57166563 M 27.764909,83.355847 C 42.405624,65.536246 57.211471,48.724286 100.73383,-0.82407468 M 33.413207,84.461946 C 56.08139,57.46454 78.226087,30.185071 104.93367,-1.9370948 M 32.930369,83.390503 C 60.328042,51.334083 86.645483,19.699085 105.61118,0.42588947 M 39.248269,83.50241 C 51.511726,67.005872 66.928617,47.546821 111.61557,0.48804966 M 38.019341,83.949595 C 56.50431,63.882628 74.802923,42.386154 112.22706,-0.29730964 M 42.877532,83.805881 C 71.840692,53.21734 98.614301,21.605301 117.9798,-0.01954891 M 42.683271,84.64441 C 72.768066,52.304991 101.5353,18.325228 117.13664,0.13668919 M 48.219194,81.907251 C 67.237517,59.455567 88.365934,38.316608 120.22988,0.45080515 M 48.21151,83.022475 C 64.513144,66.450761 80.029608,48.207645 122.59626,0.12582533 M 52.852371,82.137594 C 68.511842,65.920875 82.455193,49.756104 125.51134,2.22628 M 53.470346,84.417734 C 72.909995,61.967646 91.662576,40.050162 127.78275,-0.58775503 M 60.890573,84.96149 C 74.254724,64.335195 91.966701,48.375282 132.12911,-0.85745071 M 59.338974,83.725369 C 83.795269,57.615345 105.63389,29.907878 132.57336,-0.38816586 M 65.35823,83.389702 C 81.6108,65.700314 98.782374,44.057432 135.92401,-1.0435313 M 64.648526,83.251979 C 85.371355,62.137337 104.12288,38.544005 137.48476,0.06439529 M 69.064165,83.316496 C 91.956507,54.909512 113.90732,28.781268 143.14628,-0.31660074 M 70.618041,84.490404 C 95.548454,55.35779 120.82963,25.342954 144.10905,-0.3915293 M 74.978119,83.932322 C 95.730195,60.284153 117.61887,33.948405 148.17599,2.7645938 M 74.793495,83.969899 C 96.752754,60.608331 117.96508,35.550038 148.39667,1.1862286 M 79.104227,82.061134 C 104.70507,56.728214 132.34835,27.424187 147.77235,8.4233585 M 81.483771,83.030959 C 104.27218,56.699326 128.86703,27.405962 148.46822,6.6371251 M 84.857544,84.573071 C 106.26467,63.362013 124.78285,41.987543 147.25923,14.492957 M 85.699688,83.675497 C 104.05716,63.901342 119.41896,44.792758 148.36247,12.963308 M 91.281459,85.476483 C 106.47837,66.454118 122.21299,46.18301 148.27747,19.848125 M 90.933913,85.096373 C 113.26944,58.87429 135.95423,31.476531 147.35119,19.198632 M 94.704514,82.557067 C 113.29491,65.3333 130.2405,44.753971 147.75385,23.534781 M 96.380286,83.754027 C 115.78286,63.180339 133.17463,42.672801 148.47059,24.975869 M 102.39723,86.01699 c 11.06163,-14.856027 24.64164,-30.1483 43.72125,-56.154932 m -43.96534,53.591047 c 17.06504,-19.363195 35.03379,-38.53411 46.14809,-52.396867 m -39.51169,52.510688 c 10.81734,-13.774163 22.30604,-25.936898 40.17209,-46.525492 m -41.8944,46.83056 C 120.05247,68.990795 132.28501,53.881979 148.18734,37.40604 M 113.84726,84.838731 C 124.74608,72.087409 135.32009,58.419145 148.69053,41.825857 M 112.57671,84.412995 C 126.08626,69.040608 140.84803,52.650444 147.45615,43.273278 M 115.94562,85.722766 C 129.8495,74.036561 138.43244,60.060425 148.74681,48.601782 m -31.53562,35.375369 c 11.4452,-12.885932 23.32165,-28.031483 29.9866,-34.259952 m -24.95201,35.063376 c 6.55811,-10.968424 15.90198,-18.785542 23.73726,-30.978728 m -23.46836,31.012574 c 6.23815,-7.792764 11.80175,-13.184003 25.68965,-29.355956 m -18.63606,28.12374 c 3.26289,-2.731756 6.4419,-9.090278 17.31183,-20.585302 m -17.39849,21.301599 c 6.55708,-8.456984 13.46483,-17.432486 17.26807,-22.889815 m -11.98012,21.7102 c 4.6183,-7.027214 9.15711,-10.713025 14.43448,-15.583741 m -16.70819,17.241865 c 3.94447,-3.440004 8.12165,-7.704582 15.31309,-18.029957 m -8.36575,17.28733 c 2.27615,-3.117232 6.08871,-5.677563 8.21586,-10.557352 m -8.1176,10.041216 c 2.71195,-3.503984 6.83657,-6.826004 8.51723,-8.861 m -3.63418,9.351391 c 0.39294,-1.070338 2.08628,-2.564507 3.0453,-3.877529 m -3.61233,3.917762 c 1.00202,-0.886721 2.15083,-1.631657 4.4007,-4.113609"
       style="fill:none;stroke:#fa5252;stroke-width:0.5"
       id="path1981"
       inkscape:connector-curvature="0" />
    <path
       d="M -1.2522115,-1.5002356 C 36.067567,-0.64583417 76.597891,-0.74455365 146.43042,1.6031421 M 0.96967248,-0.93950923 C 54.404734,0.58721784 107.88671,-0.89878181 147.28874,-0.08653404 m -0.98773,-0.72805514 C 145.69668,33.986514 146.33929,66.07164 148.33908,81.831845 M 146.61947,-0.37453271 C 147.92703,23.867744 147.42476,49.59951 146.03118,83.023961 m 1.27429,1.495042 C 93.291615,82.123879 38.589132,82.070913 1.8372907,82.861203 M 146.89824,82.978196 C 101.34211,82.271093 56.921147,80.929636 0.76213775,82.151518 M 1.0235004,84.388601 C 0.48469114,52.189181 -0.52477229,19.809672 -1.8712229,-1.7996278 M -0.7949182,83.503748 C 0.46574713,66.093637 -0.7577879,47.547648 0.00377612,0.27690976"
       style="fill:none;stroke:#000000;stroke-width:1"
       id="path1983"
       inkscape:connector-curvature="0" />
  </g>
  <g
     id="g1999"
     transform="translate(-28.996917,-28.304687)">
    <g
       transform="translate(172,405)"
       id="g1989">
      <path
         d="M 0.47296386,-0.76162734 C 7.2877898,-11.264954 35.413968,-52.369868 42.086656,-62.449025 M 0.62741872,-0.37110465 C 7.3136855,-10.573195 32.834999,-51.391689 39.447473,-61.852389"
         style="fill:none;stroke:#000000;stroke-width:1"
         id="path1987"
         inkscape:connector-curvature="0" />
    </g>
    <g
       transform="translate(172,405)"
       id="g1993">
      <path
         d="m 31.859569,-30.71424 c 2.90767,-14.379385 7.454629,-26.018779 6.888617,-30.452446 m -6.000515,28.020969 c 1.825245,-7.140129 4.5522,-15.876845 7.130709,-28.423114"
         style="fill:none;stroke:#000000;stroke-width:1"
         id="path1991"
         inkscape:connector-curvature="0" />
    </g>
    <g
       transform="translate(172,405)"
       id="g1997">
      <path
         d="m 14.486755,-41.636938 c 9.905434,-10.080872 21.398188,-17.35328 24.261431,-19.529748 m -23.37333,17.098271 c 6.592122,-4.098833 14.178619,-9.780241 24.503524,-17.500416"
         style="fill:none;stroke:#000000;stroke-width:1"
         id="path1995"
         inkscape:connector-curvature="0" />
    </g>
  </g>
  <g
     id="g2013"
     transform="translate(-28.996917,-28.304687)">
    <g
       transform="translate(239,280)"
       id="g2003">
      <path
         d="M 0.87618175,-1.0306738 C -8.9870228,-11.842291 -48.736888,-53.455773 -58.657105,-63.938991 M 1.7177146,-1.5008971 C -8.3618126,-12.002046 -48.72341,-54.22347 -59.103143,-64.220235"
         style="fill:none;stroke:#000000;stroke-width:1"
         id="path2001"
         inkscape:connector-curvature="0" />
    </g>
    <g
       transform="translate(239,280)"
       id="g2007">
      <path
         d="m -33.696476,-50.832198 c -9.264126,-4.184593 -18.566634,-7.677007 -26.732725,-11.510753 m 27.59768,11.76905 c -4.325184,-3.149024 -10.805741,-7.349163 -25.556079,-13.643475"
         style="fill:none;stroke:#000000;stroke-width:1"
         id="path2005"
         inkscape:connector-curvature="0" />
    </g>
    <g
       transform="translate(239,280)"
       id="g2011">
      <path
         d="m -48.28071,-36.395435 c -4.366264,-9.250254 -8.65894,-17.701843 -12.148491,-25.947516 m 13.013446,26.205813 c -1.137921,-6.198757 -4.439351,-13.545876 -10.971845,-28.080238"
         style="fill:none;stroke:#000000;stroke-width:1"
         id="path2009"
         inkscape:connector-curvature="0" />
    </g>
  </g>
  <g
     id="g2027"
     transform="translate(-28.996917,-28.304687)">
    <g
       transform="translate(211,192)"
       id="g2017">
      <path
         d="M -1.1139176,-0.31855512 C 35.82441,9.5172737 185.56534,49.903074 222.82598,59.977317 M -0.2998063,-0.30970236 C 36.913308,10.011986 187.22491,50.170595 224.45738,60.20692"
         style="fill:none;stroke:#000000;stroke-width:1"
         id="path2015"
         inkscape:connector-curvature="0" />
    </g>
    <g
       transform="translate(211,192)"
       id="g2021">
      <path
         d="m 194.03962,62.520254 c 12.41706,-1.389842 24.61118,-0.225317 28.53447,-2.640991 m -27.95163,2.880883 c 8.20996,-0.324139 16.71125,-2.282352 30.14552,-3.221587"
         style="fill:none;stroke:#000000;stroke-width:1"
         id="path2019"
         inkscape:connector-curvature="0" />
    </g>
    <g
       transform="translate(211,192)"
       id="g2025">
      <path
         d="m 199.3584,42.700299 c 10.45026,6.48219 20.51863,15.56812 23.21569,17.178964 M 199.94124,42.940192 c 6.86218,5.292435 13.85785,8.944783 24.82674,16.598367"
         style="fill:none;stroke:#000000;stroke-width:1"
         id="path2023"
         inkscape:connector-curvature="0" />
    </g>
  </g>
  <g
     id="g2041"
     transform="translate(-28.996917,-28.304687)">
    <g
       transform="translate(247,441)"
       id="g2031">
      <path
         d="M -0.75763031,-0.37281193 C 30.178026,-10.304812 154.18449,-49.917678 185.19555,-59.679573 M 0.4161461,1.7083578 C 31.81253,-8.3095406 155.89633,-50.641755 186.68094,-60.626611"
         style="fill:none;stroke:#000000;stroke-width:1"
         id="path2029"
         inkscape:connector-curvature="0" />
    </g>
    <g
       transform="translate(247,441)"
       id="g2035">
      <path
         d="m 162.56572,-43.311587 c 7.39804,-4.609327 14.85272,-10.258524 23.54777,-16.860219 m -23.40519,19.184154 c 8.87141,-7.267256 18.43971,-15.917723 24.08302,-19.591289"
         style="fill:none;stroke:#000000;stroke-width:1"
         id="path2033"
         inkscape:connector-curvature="0" />
    </g>
    <g
       transform="translate(247,441)"
       id="g2039">
      <path
         d="m 156.07054,-62.77778 c 9.10593,0.592835 18.2827,0.104791 30.04295,2.605974 m -29.90037,-0.282038 c 11.49874,0.412066 23.62194,-0.581317 30.5782,-0.125097"
         style="fill:none;stroke:#000000;stroke-width:1"
         id="path2037"
         inkscape:connector-curvature="0" />
    </g>
  </g>
  <g
     id="g2055"
     transform="translate(-28.996917,-28.304687)">
    <g
       transform="translate(389,490)"
       id="g2045">
      <path
         d="M -0.14517449,0.28234115 C 7.7678861,-10.436795 40.055429,-53.537042 48.289841,-63.891959 M -0.03266344,0.76299442 C 8.126056,-9.6682792 41.054286,-51.538429 48.923589,-62.164556"
         style="fill:none;stroke:#000000;stroke-width:1"
         id="path2043"
         inkscape:connector-curvature="0" />
    </g>
    <g
       transform="translate(389,490)"
       id="g2049">
      <path
         d="m 40.383873,-34.733215 c 1.254388,-8.889516 7.974776,-19.875923 9.002104,-27.467039 M 38.920493,-33.54621 c 4.529759,-9.271222 7.852596,-19.042604 10.130099,-28.04848"
         style="fill:none;stroke:#000000;stroke-width:1"
         id="path2047"
         inkscape:connector-curvature="0" />
    </g>
    <g
       transform="translate(389,490)"
       id="g2053">
      <path
         d="m 24.09855,-47.219538 c 7.285249,-4.279554 19.992498,-10.6757 25.287427,-14.980716 M 22.63517,-46.032533 c 10.089137,-5.079072 18.976567,-10.583956 26.415422,-15.562157"
         style="fill:none;stroke:#000000;stroke-width:1"
         id="path2051"
         inkscape:connector-curvature="0" />
    </g>
  </g>
  <g
     id="g2069"
     transform="translate(-28.996917,-28.304687)">
    <g
       transform="translate(800,467)"
       id="g2059">
      <path
         d="M -0.73596237,-0.83933034 C 18.671081,9.9636319 97.494157,54.257834 117.08538,64.927389 M -0.03184441,0.03854997 C 19.784987,10.678493 99.724484,54.304332 119.56552,65.170257"
         style="fill:none;stroke:#000000;stroke-width:1"
         id="path2057"
         inkscape:connector-curvature="0" />
    </g>
    <g
       transform="translate(800,467)"
       id="g2063">
      <path
         d="m 88.508013,59.133011 c 13.435747,1.320974 21.007197,5.623974 32.511717,6.002443 M 90.461198,61.331743 c 8.962198,0.585236 17.736702,2.783865 28.116862,4.371407"
         style="fill:none;stroke:#000000;stroke-width:1"
         id="path2061"
         inkscape:connector-curvature="0" />
    </g>
    <g
       transform="translate(800,467)"
       id="g2067">
      <path
         d="m 98.347639,41.12463 c 9.972971,7.628273 14.065191,18.298919 22.672091,24.010824 M 100.30082,43.323362 c 6.14364,6.088609 11.94553,13.727688 18.27724,22.379788"
         style="fill:none;stroke:#000000;stroke-width:1"
         id="path2065"
         inkscape:connector-curvature="0" />
    </g>
  </g>
  <g
     id="g2083"
     transform="translate(-28.996917,-28.304687)">
    <g
       transform="translate(936,531)"
       id="g2073">
      <path
         d="M 0.22922435,0.88846964 C 16.304956,-12.241043 79.451032,-65.450684 95.317857,-78.74535 M -0.95288874,-1.6724379 C 14.675861,-14.870185 78.056476,-66.740206 94.369062,-79.431332"
         style="fill:none;stroke:#000000;stroke-width:1"
         id="path2071"
         inkscape:connector-curvature="0" />
    </g>
    <g
       transform="translate(936,531)"
       id="g2077">
      <path
         d="m 80.26811,-54.932139 c 2.135615,-5.105383 5.110752,-8.766493 13.833357,-25.540601 m -14.809972,27.322756 c 3.783528,-6.43034 5.932006,-11.735063 15.188433,-26.666282"
         style="fill:none;stroke:#000000;stroke-width:1"
         id="path2075"
         inkscape:connector-curvature="0" />
    </g>
    <g
       transform="translate(936,531)"
       id="g2081">
      <path
         d="m 67.434977,-70.945592 c 4.774349,-1.842512 10.383986,-2.216238 26.66649,-9.527148 m -27.643106,11.309303 c 6.317932,-3.059527 11.143529,-5.023684 28.021567,-10.652829"
         style="fill:none;stroke:#000000;stroke-width:1"
         id="path2079"
         inkscape:connector-curvature="0" />
    </g>
  </g>
  <g
     id="g2097"
     transform="translate(-28.996917,-28.304687)">
    <g
       transform="translate(814,366)"
       id="g2087">
      <path
         d="M -0.34579667,0.04897745 C 11.882631,-9.7203833 61.002686,-49.92016 73.190359,-59.796458 M 0.59118592,0.11557292 C 12.80366,-9.7757785 61.892585,-50.056657 73.98021,-59.774367"
         style="fill:none;stroke:#000000;stroke-width:1"
         id="path2085"
         inkscape:connector-curvature="0" />
    </g>
    <g
       transform="translate(814,366)"
       id="g2091">
      <path
         d="m 58.666581,-33.708587 c 3.23158,-7.977056 8.598374,-14.177778 14.847772,-25.419675 M 58.64885,-33.583603 c 4.284812,-8.88684 9.258943,-15.154477 15.740241,-27.066375"
         style="fill:none;stroke:#000000;stroke-width:1"
         id="path2089"
         inkscape:connector-curvature="0" />
    </g>
    <g
       transform="translate(814,366)"
       id="g2095">
      <path
         d="m 45.71756,-49.628477 c 6.765244,-3.402847 15.822285,-5.066675 27.796793,-9.499785 m -27.814523,9.624769 c 8.336569,-3.955537 17.277185,-5.346666 28.689261,-11.146485"
         style="fill:none;stroke:#000000;stroke-width:1"
         id="path2093"
         inkscape:connector-curvature="0" />
    </g>
  </g>
  <g
     id="g2111"
     transform="translate(-28.996917,-28.304687)">
    <g
       transform="translate(837,187)"
       id="g2101">
      <path
         d="M -1.0871297,-0.83995142 C 17.03811,11.043452 90.97173,58.562377 109.30491,70.892252 M -1.5257529,0.56365761 C 16.866584,12.51109 90.61276,59.012787 108.87646,70.883503"
         style="fill:none;stroke:#000000;stroke-width:1"
         id="path2099"
         inkscape:connector-curvature="0" />
    </g>
    <g
       transform="translate(837,187)"
       id="g2105">
      <path
         d="m 78.196991,64.856559 c 9.665749,1.872231 23.545129,2.666162 29.803959,4.359454 M 79.081319,64.232509 c 10.857691,2.258826 19.966285,4.772974 28.890941,5.662464"
         style="fill:none;stroke:#000000;stroke-width:1"
         id="path2103"
         inkscape:connector-curvature="0" />
    </g>
    <g
       transform="translate(837,187)"
       id="g2109">
      <path
         d="m 89.247799,47.564952 c 5.782003,7.757128 15.836451,14.536067 18.753151,21.651061 M 90.132127,46.940903 c 7.1904,7.911484 12.643373,16.145712 17.840133,22.95407"
         style="fill:none;stroke:#000000;stroke-width:1"
         id="path2107"
         inkscape:connector-curvature="0" />
    </g>
  </g>
  <g
     id="g2125"
     transform="translate(-28.996917,-28.304687)">
    <g
       transform="translate(1087,400)"
       id="g2115">
      <path
         d="M 0.75238504,-0.82155433 C 1.1792958,-15.747414 3.173105,-74.714009 3.3508111,-89.396834 M -1.149196,1.7777227 C -0.67892254,-13.263071 2.5333609,-73.594345 3.0914476,-88.690663"
         style="fill:none;stroke:#000000;stroke-width:1"
         id="path2113"
         inkscape:connector-curvature="0" />
    </g>
    <g
       transform="translate(1087,400)"
       id="g2119">
      <path
         d="M 10.677969,-59.473932 C 8.0722253,-72.444428 5.5936035,-80.653592 4.7899155,-89.946615 m 6.8197825,29.997186 C 9.1311708,-70.866602 4.7004183,-82.299225 3.5370636,-88.363768"
         style="fill:none;stroke:#000000;stroke-width:1"
         id="path2117"
         inkscape:connector-curvature="0" />
    </g>
    <g
       transform="translate(1087,400)"
       id="g2123">
      <path
         d="M -9.8216096,-60.415895 C -4.927797,-73.170371 0.09189431,-81.034984 4.7899155,-89.946615 M -8.8898799,-60.891392 C -3.2266663,-71.469123 0.4838517,-82.527651 3.5370636,-88.363768"
         style="fill:none;stroke:#000000;stroke-width:1"
         id="path2121"
         inkscape:connector-curvature="0" />
    </g>
  </g>
  <g
     transform="translate(422.50308,215.19531)"
     id="g2129">
    <text
       x="0"
       y="18"
       font-size="20px"
       id="text2127"
       style="font-size:20px;font-family:Virgil;fill:#000000">Public View</text>
  </g>
  <g
     transform="translate(430.50308,349.19531)"
     id="g2133">
    <text
       x="0"
       y="18"
       font-size="20px"
       id="text2131"
       style="font-size:20px;font-family:Virgil;fill:#000000">Public View</text>
  </g>
  <g
     transform="translate(1025.5031,223.19531)"
     id="g2137">
    <text
       x="0"
       y="18"
       font-size="20px"
       id="text2135"
       style="font-size:20px;font-family:Virgil;fill:#000000">Public View</text>
  </g>
  <g
     transform="translate(1029.5031,402.19531)"
     id="g2141">
    <text
       x="0"
       y="18"
       font-size="20px"
       id="text2139"
       style="font-size:20px;font-family:Virgil;fill:#000000">Public View</text>
  </g>
  <g
     transform="translate(173.50308,-2.8046875)"
     id="g2145">
    <text
       x="0"
       y="18"
       font-size="20px"
       id="text2143"
       style="font-size:20px;font-family:Virgil;fill:#000000">Schema owned by User 1</text>
  </g>
  <g
     transform="translate(775.50308,5.1953125)"
     id="g2149">
    <text
       x="0"
       y="18"
       font-size="20px"
       id="text2147"
       style="font-size:20px;font-family:Virgil;fill:#000000">Schema owned by User 2</text>
  </g>
</svg>
