<svg version="1.1" width="1400" height="300" xmlns="http://www.w3.org/2000/svg">
  <style>
    /* <![CDATA[ */
    text { font-family: sans-serif; font-size: 20px; }
    /* ]]> */
  </style>
  <filter id="dropshadow" height="130%">
    <feGaussianBlur in="SourceAlpha" stdDeviation="3" />
    <feOffset dx="2" dy="2" result="offsetblur" />
    <feMerge> 
      <feMergeNode />
      <feMergeNode in="SourceGraphic" />
    </feMerge>
  </filter>
  <defs>
    <marker id="arrow" viewBox="0 0 10 10" refX="1" refY="5" markerWidth="6" markerHeight="6" orient="auto">
      <path d="M 0 0 L 10 5 L 0 10 z" fill="black" />
    </marker>
  </defs>

  <!-- 3AND -->
  <g>
    <g transform="translate(10 10)">
      <rect x="0" y="0" width="80" height="80" fill="white" stroke="black" stroke-width="2" rx="10" ry="10" style="filter:url(#dropshadow)" />
      <text text-anchor="middle" x="40" y="45">90%</text>
    </g>
    <g transform="translate(110 10)">
      <rect x="0" y="0" width="80" height="80" fill="white" stroke="black" stroke-width="2" rx="10" ry="10" style="filter:url(#dropshadow)" />
      <text text-anchor="middle" x="40" y="45">90%</text>
    </g>
    <g transform="translate(210 10)">
      <rect x="0" y="0" width="80" height="80" fill="white" stroke="black" stroke-width="2" rx="10" ry="10" style="filter:url(#dropshadow)" />
      <text text-anchor="middle" x="40" y="45">90%</text>
    </g>
    <g transform="translate(110 180)">
      <rect x="0" y="0" width="80" height="80" fill="white" stroke="black" stroke-width="2" rx="10" ry="10" style="filter:url(#dropshadow)" />
      <text text-anchor="middle" x="40" y="45">90%</text>
    </g>
    <text text-anchor="middle" x="150" y="170">AND</text>
    <line x1="150" y1="150" x2="90" y2="105" stroke="black" stroke-width="2" fill="black" marker-end="url(#arrow)" />
    <line x1="150" y1="150" x2="210" y2="105" stroke="black" stroke-width="2" fill="black" marker-end="url(#arrow)" />
    <line x1="150" y1="150" x2="150" y2="105" stroke="black" stroke-width="2" fill="black" marker-end="url(#arrow)" />
    <text text-anchor="middle" x="150" y="290">66%</text>
  </g>

  <!-- 2AND -->
  <g  transform="translate(350 0)">
    <g transform="translate(10 10)">
      <rect x="0" y="0" width="80" height="80" fill="white" stroke="black" stroke-width="2" rx="10" ry="10" style="filter:url(#dropshadow)" />
      <text text-anchor="middle" x="40" y="45">90%</text>
    </g>
    <g transform="translate(110 10)">
      <rect x="0" y="0" width="80" height="80" fill="white" stroke="black" stroke-width="2" rx="10" ry="10" style="filter:url(#dropshadow)" />
      <text text-anchor="middle" x="40" y="45">90%</text>
    </g>
    <g transform="translate(110 180)">
      <rect x="0" y="0" width="80" height="80" fill="white" stroke="black" stroke-width="2" rx="10" ry="10" style="filter:url(#dropshadow)" />
      <text text-anchor="middle" x="40" y="45">90%</text>
    </g>
    <text text-anchor="middle" x="150" y="170">AND</text>
    <line x1="150" y1="150" x2="90" y2="105" stroke="black" stroke-width="2" fill="black" marker-end="url(#arrow)" />
    <line x1="150" y1="150" x2="150" y2="105" stroke="black" stroke-width="2" fill="black" marker-end="url(#arrow)" />
    <text text-anchor="middle" x="150" y="290">73%</text>
  </g>

  <!-- 1AND -->
  <g  transform="translate(700 0)">
    <g transform="translate(110 10)">
      <rect x="0" y="0" width="80" height="80" fill="white" stroke="black" stroke-width="2" rx="10" ry="10" style="filter:url(#dropshadow)" />
      <text text-anchor="middle" x="40" y="45">90%</text>
    </g>
    <g transform="translate(110 180)">
      <rect x="0" y="0" width="80" height="80" fill="white" stroke="black" stroke-width="2" rx="10" ry="10" style="filter:url(#dropshadow)" />
      <text text-anchor="middle" x="40" y="45">90%</text>
    </g>
    <line x1="150" y1="180" x2="150" y2="105" stroke="black" stroke-width="2" fill="black" marker-end="url(#arrow)" />
    <text text-anchor="middle" x="150" y="290">81%</text>
  </g>

  <!-- SINGLE -->
  <g transform="translate(1050 0)">
    <g transform="translate(110 180)">
      <rect x="0" y="0" width="80" height="80" fill="white" stroke="black" stroke-width="2" rx="10" ry="10" style="filter:url(#dropshadow)" />
      <text text-anchor="middle" x="40" y="45">90%</text>
    </g>
    <text text-anchor="middle" x="150" y="290">90%</text>
  </g>
</svg>
