<?xml version="1.0" encoding="UTF-8" standalone="no"?>
<!-- Created with Inkscape (http://www.inkscape.org/) -->

<svg
   xmlns:dc="http://purl.org/dc/elements/1.1/"
   xmlns:cc="http://creativecommons.org/ns#"
   xmlns:rdf="http://www.w3.org/1999/02/22-rdf-syntax-ns#"
   xmlns:svg="http://www.w3.org/2000/svg"
   xmlns="http://www.w3.org/2000/svg"
   xmlns:sodipodi="http://sodipodi.sourceforge.net/DTD/sodipodi-0.dtd"
   xmlns:inkscape="http://www.inkscape.org/namespaces/inkscape"
   width="162.8205mm"
   height="42.28194mm"
   viewBox="0 0 162.8205 42.28194"
   version="1.1"
   id="svg8"
   inkscape:version="0.92.4 (5da689c313, 2019-01-14)"
   sodipodi:docname="construction.svg">
  <defs
     id="defs2" />
  <sodipodi:namedview
     id="base"
     pagecolor="#ffffff"
     bordercolor="#666666"
     borderopacity="1.0"
     inkscape:pageopacity="0.0"
     inkscape:pageshadow="2"
     inkscape:zoom="0.98994949"
     inkscape:cx="-64.672536"
     inkscape:cy="31.632581"
     inkscape:document-units="mm"
     inkscape:current-layer="layer1"
     showgrid="false"
     inkscape:window-width="2506"
     inkscape:window-height="1376"
     inkscape:window-x="54"
     inkscape:window-y="27"
     inkscape:window-maximized="1" />
  <metadata
     id="metadata5">
    <rdf:RDF>
      <cc:Work
         rdf:about="">
        <dc:format>image/svg+xml</dc:format>
        <dc:type
           rdf:resource="http://purl.org/dc/dcmitype/StillImage" />
        <dc:title></dc:title>
      </cc:Work>
    </rdf:RDF>
  </metadata>
  <g
     inkscape:label="Layer 1"
     inkscape:groupmode="layer"
     id="layer1"
     transform="translate(-25.497561,-84.894947)">
    <rect
       style="fill:#949820;fill-opacity:1;stroke:#000000;stroke-width:5.13147736;stroke-linecap:round;stroke-linejoin:round;stroke-miterlimit:4;stroke-dasharray:none;stroke-opacity:1"
       id="rect815"
       width="157.68903"
       height="37.150463"
       x="28.063299"
       y="87.460686"
       rx="10" />
    <g
       aria-label="UNDER CONSTRUCTION"
       transform="scale(0.71949516,1.3898634)"
       style="font-style:normal;font-variant:normal;font-weight:normal;font-stretch:condensed;font-size:20.11925507px;line-height:1.25;font-family:Impact;-inkscape-font-specification:'Impact, Condensed';font-variant-ligatures:normal;font-variant-caps:normal;font-variant-numeric:normal;font-feature-settings:normal;text-align:start;letter-spacing:0px;word-spacing:0px;writing-mode:lr-tb;text-anchor:start;fill:#000000;fill-opacity:0.99004977;stroke:none;stroke-width:1.88616264;stroke-opacity:1"
       id="text4558">
      <path
         d="m 68.904528,68.312067 v 10.629411 q 0,1.80759 -0.117887,2.544379 -0.117886,0.726965 -0.697493,1.50305 -0.579608,0.76626 -1.532522,1.169038 -0.94309,0.392954 -2.230015,0.392954 -1.424459,0 -2.514907,-0.471545 -1.090448,-0.471545 -1.63076,-1.227981 -0.540312,-0.756437 -0.63855,-1.591465 -0.09824,-0.844851 -0.09824,-3.536588 v -9.411253 h 4.135843 v 11.92616 q 0,1.041329 0.108063,1.336044 0.117886,0.284892 0.461721,0.284892 0.392954,0 0.501016,-0.314363 0.117887,-0.324187 0.117887,-1.512874 V 68.312067 Z"
         style="font-style:normal;font-variant:normal;font-weight:normal;font-stretch:condensed;font-size:20.11925507px;font-family:Impact;-inkscape-font-specification:'Impact, Condensed';font-variant-ligatures:normal;font-variant-caps:normal;font-variant-numeric:normal;font-feature-settings:normal;text-align:start;writing-mode:lr-tb;text-anchor:start;fill:#000000;fill-opacity:0.99004977;stroke:none;stroke-width:1.88616264;stroke-opacity:1"
         id="path4562"
         inkscape:connector-curvature="0" />
      <path
         d="m 79.74024,68.312067 v 15.904821 h -3.625002 l -2.151425,-7.230357 v 7.230357 H 70.505816 V 68.312067 h 3.457997 l 2.31843,7.16159 v -7.16159 z"
         style="font-style:normal;font-variant:normal;font-weight:normal;font-stretch:condensed;font-size:20.11925507px;font-family:Impact;-inkscape-font-specification:'Impact, Condensed';font-variant-ligatures:normal;font-variant-caps:normal;font-variant-numeric:normal;font-feature-settings:normal;text-align:start;writing-mode:lr-tb;text-anchor:start;fill:#000000;fill-opacity:0.99004977;stroke:none;stroke-width:1.88616264;stroke-opacity:1"
         id="path4564"
         inkscape:connector-curvature="0" />
      <path
         d="m 81.390649,68.312067 h 3.094514 q 2.996276,0 4.047428,0.275068 1.060977,0.275068 1.611113,0.903795 0.550135,0.628726 0.687669,1.404811 0.137534,0.766261 0.137534,3.025747 v 5.570126 q 0,2.141601 -0.206301,2.868566 -0.196477,0.717141 -0.697493,1.129743 -0.501017,0.402778 -1.237806,0.569784 -0.736789,0.157181 -2.220191,0.157181 h -5.216467 z m 4.135843,2.721208 v 10.462406 q 0.893971,0 1.100271,-0.353659 0.206301,-0.363483 0.206301,-1.954947 V 73.00787 q 0,-1.080624 -0.06877,-1.385164 -0.06877,-0.304539 -0.314363,-0.442073 -0.245596,-0.147358 -0.923442,-0.147358 z"
         style="font-style:normal;font-variant:normal;font-weight:normal;font-stretch:condensed;font-size:20.11925507px;font-family:Impact;-inkscape-font-specification:'Impact, Condensed';font-variant-ligatures:normal;font-variant-caps:normal;font-variant-numeric:normal;font-feature-settings:normal;text-align:start;writing-mode:lr-tb;text-anchor:start;fill:#000000;fill-opacity:0.99004977;stroke:none;stroke-width:1.88616264;stroke-opacity:1"
         id="path4566"
         inkscape:connector-curvature="0" />
      <path
         d="m 92.51125,68.312067 h 6.896347 v 3.182929 h -2.760504 v 3.015924 h 2.583674 v 3.025747 h -2.583674 v 3.497292 h 3.035572 v 3.182929 H 92.51125 Z"
         style="font-style:normal;font-variant:normal;font-weight:normal;font-stretch:condensed;font-size:20.11925507px;font-family:Impact;-inkscape-font-specification:'Impact, Condensed';font-variant-ligatures:normal;font-variant-caps:normal;font-variant-numeric:normal;font-feature-settings:normal;text-align:start;writing-mode:lr-tb;text-anchor:start;fill:#000000;fill-opacity:0.99004977;stroke:none;stroke-width:1.88616264;stroke-opacity:1"
         id="path4568"
         inkscape:connector-curvature="0" />
      <path
         d="m 100.88118,68.312067 h 2.92751 q 2.9275,0 3.95901,0.225949 1.04133,0.225948 1.6897,1.159215 0.6582,0.923442 0.6582,2.95698 0,1.856709 -0.46172,2.495259 -0.46172,0.638551 -1.81741,0.766261 1.22798,0.304539 1.6504,0.81538 0.42243,0.51084 0.52067,0.94309 0.10806,0.422426 0.10806,2.347901 v 4.194786 h -3.84113 v -5.285234 q 0,-1.277101 -0.2063,-1.58164 -0.19647,-0.30454 -1.05115,-0.30454 v 7.171414 h -4.13584 z m 4.13584,2.721208 v 3.536588 q 0.69749,0 0.97256,-0.186653 0.28489,-0.196478 0.28489,-1.24763 v -0.874323 q 0,-0.756437 -0.27506,-0.992209 -0.26525,-0.235773 -0.98239,-0.235773 z"
         style="font-style:normal;font-variant:normal;font-weight:normal;font-stretch:condensed;font-size:20.11925507px;font-family:Impact;-inkscape-font-specification:'Impact, Condensed';font-variant-ligatures:normal;font-variant-caps:normal;font-variant-numeric:normal;font-feature-settings:normal;text-align:start;writing-mode:lr-tb;text-anchor:start;fill:#000000;fill-opacity:0.99004977;stroke:none;stroke-width:1.88616264;stroke-opacity:1"
         id="path4570"
         inkscape:connector-curvature="0" />
      <path
         d="m 124.92015,75.247709 h -4.13584 v -2.770327 q 0,-1.208334 -0.13754,-1.50305 -0.12771,-0.30454 -0.57961,-0.30454 -0.51084,0 -0.64837,0.363483 -0.13753,0.363483 -0.13753,1.571817 v 7.387539 q 0,1.159215 0.13753,1.512873 0.13753,0.353659 0.6189,0.353659 0.46172,0 0.59926,-0.353659 0.14736,-0.353658 0.14736,-1.660231 V 77.85103 h 4.13584 v 0.618903 q 0,2.465788 -0.35366,3.497293 -0.34384,1.031504 -1.54235,1.807589 -1.18868,0.776084 -2.93733,0.776084 -1.81741,0 -2.99627,-0.658198 -1.17887,-0.658198 -1.562,-1.817413 -0.38313,-1.169039 -0.38313,-3.507116 v -4.646684 q 0,-1.719174 0.11789,-2.57385 0.11789,-0.864499 0.69749,-1.660231 0.58943,-0.795732 1.62094,-1.24763 1.04133,-0.461721 2.3872,-0.461721 1.82723,0 3.01592,0.707318 1.18869,0.707317 1.56199,1.768294 0.37331,1.051152 0.37331,3.281167 z"
         style="font-style:normal;font-variant:normal;font-weight:normal;font-stretch:condensed;font-size:20.11925507px;font-family:Impact;-inkscape-font-specification:'Impact, Condensed';font-variant-ligatures:normal;font-variant-caps:normal;font-variant-numeric:normal;font-feature-settings:normal;text-align:start;writing-mode:lr-tb;text-anchor:start;fill:#000000;fill-opacity:0.99004977;stroke:none;stroke-width:1.88616264;stroke-opacity:1"
         id="path4572"
         inkscape:connector-curvature="0" />
      <path
         d="m 135.87375,77.625082 q 0,2.39702 -0.11788,3.399054 -0.10807,0.992209 -0.70732,1.817413 -0.58943,0.825204 -1.60129,1.267277 -1.01186,0.442073 -2.35773,0.442073 -1.2771,0 -2.29878,-0.412601 -1.01185,-0.422426 -1.63076,-1.257454 -0.6189,-0.835028 -0.73679,-1.817413 -0.11788,-0.982386 -0.11788,-3.438349 v -2.721208 q 0,-2.397021 0.10806,-3.38923 0.11789,-1.002033 0.70732,-1.827237 0.59925,-0.825204 1.61111,-1.267277 1.01186,-0.442074 2.35772,-0.442074 1.27711,0 2.28896,0.422426 1.02168,0.412602 1.64059,1.247629 0.6189,0.835028 0.73679,1.817414 0.11788,0.982385 0.11788,3.438349 z m -4.13584,-5.226291 q 0,-1.110096 -0.12771,-1.414635 -0.11789,-0.314364 -0.50102,-0.314364 -0.32418,0 -0.50101,0.255421 -0.16701,0.245596 -0.16701,1.473578 v 7.426834 q 0,1.385164 0.10806,1.709351 0.11789,0.324187 0.53049,0.324187 0.42243,0 0.54031,-0.373306 0.11789,-0.373307 0.11789,-1.778118 z"
         style="font-style:normal;font-variant:normal;font-weight:normal;font-stretch:condensed;font-size:20.11925507px;font-family:Impact;-inkscape-font-specification:'Impact, Condensed';font-variant-ligatures:normal;font-variant-caps:normal;font-variant-numeric:normal;font-feature-settings:normal;text-align:start;writing-mode:lr-tb;text-anchor:start;fill:#000000;fill-opacity:0.99004977;stroke:none;stroke-width:1.88616264;stroke-opacity:1"
         id="path4574"
         inkscape:connector-curvature="0" />
      <path
         d="m 146.66034,68.312067 v 15.904821 h -3.625 l -2.15142,-7.230357 v 7.230357 h -3.458 V 68.312067 h 3.458 l 2.31843,7.16159 v -7.16159 z"
         style="font-style:normal;font-variant:normal;font-weight:normal;font-stretch:condensed;font-size:20.11925507px;font-family:Impact;-inkscape-font-specification:'Impact, Condensed';font-variant-ligatures:normal;font-variant-caps:normal;font-variant-numeric:normal;font-feature-settings:normal;text-align:start;writing-mode:lr-tb;text-anchor:start;fill:#000000;fill-opacity:0.99004977;stroke:none;stroke-width:1.88616264;stroke-opacity:1"
         id="path4576"
         inkscape:connector-curvature="0" />
      <path
         d="m 157.07362,73.125756 h -3.84112 v -1.178862 q 0,-0.825204 -0.14736,-1.051153 -0.14736,-0.225949 -0.49119,-0.225949 -0.37331,0 -0.56979,0.30454 -0.18665,0.304539 -0.18665,0.923442 0,0.795732 0.21612,1.198511 0.20631,0.402778 1.16904,0.972561 2.76051,1.640584 3.47765,2.691736 0.71714,1.051153 0.71714,3.38923 0,1.699527 -0.40278,2.505083 -0.39295,0.805557 -1.53252,1.355692 -1.13957,0.540312 -2.65244,0.540312 -1.66023,0 -2.83909,-0.628726 -1.16904,-0.628727 -1.53253,-1.601289 -0.36348,-0.972561 -0.36348,-2.760503 v -1.041328 h 3.84113 v 1.935299 q 0,0.893971 0.15718,1.149391 0.16701,0.25542 0.57961,0.25542 0.4126,0 0.60908,-0.324187 0.2063,-0.324187 0.2063,-0.962738 0,-1.404811 -0.38313,-1.837061 -0.39296,-0.432249 -1.9353,-1.444106 -1.54235,-1.021681 -2.04336,-1.483402 -0.50102,-0.461722 -0.83503,-1.277102 -0.32419,-0.81538 -0.32419,-2.082657 0,-1.827237 0.46172,-2.672088 0.47155,-0.844852 1.51288,-1.316397 1.04132,-0.481369 2.5149,-0.481369 1.61112,0 2.74086,0.520664 1.13957,0.520665 1.50305,1.316397 0.3733,0.785908 0.3733,2.681912 z"
         style="font-style:normal;font-variant:normal;font-weight:normal;font-stretch:condensed;font-size:20.11925507px;font-family:Impact;-inkscape-font-specification:'Impact, Condensed';font-variant-ligatures:normal;font-variant-caps:normal;font-variant-numeric:normal;font-feature-settings:normal;text-align:start;writing-mode:lr-tb;text-anchor:start;fill:#000000;fill-opacity:0.99004977;stroke:none;stroke-width:1.88616264;stroke-opacity:1"
         id="path4578"
         inkscape:connector-curvature="0" />
      <path
         d="m 167.05467,68.312067 v 3.182929 h -2.45597 v 12.721892 h -4.13584 V 71.494996 h -2.44614 v -3.182929 z"
         style="font-style:normal;font-variant:normal;font-weight:normal;font-stretch:condensed;font-size:20.11925507px;font-family:Impact;-inkscape-font-specification:'Impact, Condensed';font-variant-ligatures:normal;font-variant-caps:normal;font-variant-numeric:normal;font-feature-settings:normal;text-align:start;writing-mode:lr-tb;text-anchor:start;fill:#000000;fill-opacity:0.99004977;stroke:none;stroke-width:1.88616264;stroke-opacity:1"
         id="path4580"
         inkscape:connector-curvature="0" />
      <path
         d="m 167.99776,68.312067 h 2.92751 q 2.92751,0 3.95901,0.225949 1.04133,0.225948 1.6897,1.159215 0.6582,0.923442 0.6582,2.95698 0,1.856709 -0.46172,2.495259 -0.46172,0.638551 -1.81741,0.766261 1.22798,0.304539 1.6504,0.81538 0.42243,0.51084 0.52067,0.94309 0.10806,0.422426 0.10806,2.347901 v 4.194786 h -3.84113 v -5.285234 q 0,-1.277101 -0.2063,-1.58164 -0.19647,-0.30454 -1.05115,-0.30454 v 7.171414 h -4.13584 z m 4.13584,2.721208 v 3.536588 q 0.69749,0 0.97256,-0.186653 0.28489,-0.196478 0.28489,-1.24763 v -0.874323 q 0,-0.756437 -0.27506,-0.992209 -0.26525,-0.235773 -0.98239,-0.235773 z"
         style="font-style:normal;font-variant:normal;font-weight:normal;font-stretch:condensed;font-size:20.11925507px;font-family:Impact;-inkscape-font-specification:'Impact, Condensed';font-variant-ligatures:normal;font-variant-caps:normal;font-variant-numeric:normal;font-feature-settings:normal;text-align:start;writing-mode:lr-tb;text-anchor:start;fill:#000000;fill-opacity:0.99004977;stroke:none;stroke-width:1.88616264;stroke-opacity:1"
         id="path4582"
         inkscape:connector-curvature="0" />
      <path
         d="m 188.24472,68.312067 v 10.629411 q 0,1.80759 -0.11788,2.544379 -0.11789,0.726965 -0.6975,1.50305 -0.57961,0.76626 -1.53252,1.169038 -0.94309,0.392954 -2.23001,0.392954 -1.42446,0 -2.51491,-0.471545 -1.09045,-0.471545 -1.63076,-1.227981 -0.54031,-0.756437 -0.63855,-1.591465 -0.0982,-0.844851 -0.0982,-3.536588 v -9.411253 h 4.13584 v 11.92616 q 0,1.041329 0.10807,1.336044 0.11788,0.284892 0.46172,0.284892 0.39295,0 0.50101,-0.314363 0.11789,-0.324187 0.11789,-1.512874 V 68.312067 Z"
         style="font-style:normal;font-variant:normal;font-weight:normal;font-stretch:condensed;font-size:20.11925507px;font-family:Impact;-inkscape-font-specification:'Impact, Condensed';font-variant-ligatures:normal;font-variant-caps:normal;font-variant-numeric:normal;font-feature-settings:normal;text-align:start;writing-mode:lr-tb;text-anchor:start;fill:#000000;fill-opacity:0.99004977;stroke:none;stroke-width:1.88616264;stroke-opacity:1"
         id="path4584"
         inkscape:connector-curvature="0" />
      <path
         d="m 199.50286,75.247709 h -4.13584 v -2.770327 q 0,-1.208334 -0.13754,-1.50305 -0.12771,-0.30454 -0.57961,-0.30454 -0.51084,0 -0.64837,0.363483 -0.13753,0.363483 -0.13753,1.571817 v 7.387539 q 0,1.159215 0.13753,1.512873 0.13753,0.353659 0.6189,0.353659 0.46172,0 0.59926,-0.353659 0.14736,-0.353658 0.14736,-1.660231 V 77.85103 h 4.13584 v 0.618903 q 0,2.465788 -0.35366,3.497293 -0.34384,1.031504 -1.54235,1.807589 -1.18868,0.776084 -2.93733,0.776084 -1.81741,0 -2.99627,-0.658198 -1.17887,-0.658198 -1.562,-1.817413 -0.38313,-1.169039 -0.38313,-3.507116 v -4.646684 q 0,-1.719174 0.11789,-2.57385 0.11789,-0.864499 0.69749,-1.660231 0.58943,-0.795732 1.62094,-1.24763 1.04133,-0.461721 2.3872,-0.461721 1.82723,0 3.01592,0.707318 1.18869,0.707317 1.56199,1.768294 0.37331,1.051152 0.37331,3.281167 z"
         style="font-style:normal;font-variant:normal;font-weight:normal;font-stretch:condensed;font-size:20.11925507px;font-family:Impact;-inkscape-font-specification:'Impact, Condensed';font-variant-ligatures:normal;font-variant-caps:normal;font-variant-numeric:normal;font-feature-settings:normal;text-align:start;writing-mode:lr-tb;text-anchor:start;fill:#000000;fill-opacity:0.99004977;stroke:none;stroke-width:1.88616264;stroke-opacity:1"
         id="path4586"
         inkscape:connector-curvature="0" />
      <path
         d="m 209.33654,68.312067 v 3.182929 h -2.45597 v 12.721892 h -4.13584 V 71.494996 h -2.44614 v -3.182929 z"
         style="font-style:normal;font-variant:normal;font-weight:normal;font-stretch:condensed;font-size:20.11925507px;font-family:Impact;-inkscape-font-specification:'Impact, Condensed';font-variant-ligatures:normal;font-variant-caps:normal;font-variant-numeric:normal;font-feature-settings:normal;text-align:start;writing-mode:lr-tb;text-anchor:start;fill:#000000;fill-opacity:0.99004977;stroke:none;stroke-width:1.88616264;stroke-opacity:1"
         id="path4588"
         inkscape:connector-curvature="0" />
      <path
         d="m 214.41548,68.312067 v 15.904821 h -4.13585 V 68.312067 Z"
         style="font-style:normal;font-variant:normal;font-weight:normal;font-stretch:condensed;font-size:20.11925507px;font-family:Impact;-inkscape-font-specification:'Impact, Condensed';font-variant-ligatures:normal;font-variant-caps:normal;font-variant-numeric:normal;font-feature-settings:normal;text-align:start;writing-mode:lr-tb;text-anchor:start;fill:#000000;fill-opacity:0.99004977;stroke:none;stroke-width:1.88616264;stroke-opacity:1"
         id="path4590"
         inkscape:connector-curvature="0" />
      <path
         d="m 225.5459,77.625082 q 0,2.39702 -0.11788,3.399054 -0.10807,0.992209 -0.70732,1.817413 -0.58943,0.825204 -1.60129,1.267277 -1.01186,0.442073 -2.35773,0.442073 -1.2771,0 -2.29878,-0.412601 -1.01185,-0.422426 -1.63076,-1.257454 -0.6189,-0.835028 -0.73679,-1.817413 -0.11788,-0.982386 -0.11788,-3.438349 v -2.721208 q 0,-2.397021 0.10806,-3.38923 0.11789,-1.002033 0.70732,-1.827237 0.59925,-0.825204 1.61111,-1.267277 1.01186,-0.442074 2.35772,-0.442074 1.27711,0 2.28896,0.422426 1.02168,0.412602 1.64059,1.247629 0.6189,0.835028 0.73679,1.817414 0.11788,0.982385 0.11788,3.438349 z m -4.13584,-5.226291 q 0,-1.110096 -0.12771,-1.414635 -0.11789,-0.314364 -0.50102,-0.314364 -0.32419,0 -0.50101,0.255421 -0.16701,0.245596 -0.16701,1.473578 v 7.426834 q 0,1.385164 0.10806,1.709351 0.11789,0.324187 0.53049,0.324187 0.42243,0 0.54031,-0.373306 0.11789,-0.373307 0.11789,-1.778118 z"
         style="font-style:normal;font-variant:normal;font-weight:normal;font-stretch:condensed;font-size:20.11925507px;font-family:Impact;-inkscape-font-specification:'Impact, Condensed';font-variant-ligatures:normal;font-variant-caps:normal;font-variant-numeric:normal;font-feature-settings:normal;text-align:start;writing-mode:lr-tb;text-anchor:start;fill:#000000;fill-opacity:0.99004977;stroke:none;stroke-width:1.88616264;stroke-opacity:1"
         id="path4592"
         inkscape:connector-curvature="0" />
      <path
         d="m 236.33249,68.312067 v 15.904821 h -3.625 l -2.15142,-7.230357 v 7.230357 h -3.458 V 68.312067 h 3.458 l 2.31843,7.16159 v -7.16159 z"
         style="font-style:normal;font-variant:normal;font-weight:normal;font-stretch:condensed;font-size:20.11925507px;font-family:Impact;-inkscape-font-specification:'Impact, Condensed';font-variant-ligatures:normal;font-variant-caps:normal;font-variant-numeric:normal;font-feature-settings:normal;text-align:start;writing-mode:lr-tb;text-anchor:start;fill:#000000;fill-opacity:0.99004977;stroke:none;stroke-width:1.88616264;stroke-opacity:1"
         id="path4594"
         inkscape:connector-curvature="0" />
    </g>
  </g>
</svg>
